<?xml version="1.0" encoding="utf-8" ?>
<svg xmlns="http://www.w3.org/2000/svg" xmlns:xlink="http://www.w3.org/1999/xlink" width="512" height="512">
	<path fill="#EDF2F4" d="M0 0L0 512L512 512L512 0L0 0Z"/>
	<path fill="#2B2D42" d="M92.5786 283.172L90.1292 283.168C89.3801 283.164 87.2774 283.054 87.168 281.973C87.1264 281.56 87.1817 281.122 87.183 280.706L87.0995 266.094C87.0956 265.556 86.9796 265.047 86.9622 264.525L86.9464 259.869C86.9376 259.475 86.866 259.09 86.8574 258.698L86.8326 256.007C86.8193 255.724 86.7546 255.447 86.7465 255.165L86.7312 250.925C86.7238 250.464 86.6217 250.014 86.6087 249.562L86.595 244.75C86.5918 244.219 86.4957 243.7 86.4877 243.177L86.4603 238.185C86.2511 238.144 86.0066 238.168 85.7936 238.168L77.9269 238.175C77.6852 238.179 77.2981 238.242 77.0898 238.125C75.8414 237.428 77.6068 236.151 78.0847 235.637L90.4289 221.406C90.986 220.743 91.4355 219.915 92.3508 219.758C92.9315 219.765 93.3167 220.002 93.7057 220.423L106.815 235.635C107.316 236.222 108.012 236.751 108.34 237.456C108.051 238.386 107.548 238.291 106.749 238.287L98.5163 238.304C98.4662 238.649 98.4903 239.017 98.4887 239.366L98.4762 241.203C98.4669 241.619 98.3952 242.03 98.3853 242.443L98.2941 251.746C98.2403 253.423 98.1888 255.094 98.1058 256.768L98.019 264.394C98.0167 264.889 97.9425 265.375 97.9309 265.866L97.8204 274.886C97.8088 275.327 97.7479 275.76 97.745 276.203L97.7393 279.984C97.7367 282.352 97.8267 283.166 94.9126 283.171L92.5786 283.172Z"/>
	<path fill="#2B2D42" d="M59.5529 253.712L67.9435 243.632C69.3971 242.129 71.4882 245.551 72.336 246.547L82.9203 259.048C83.3416 259.541 84.1824 260.277 84.1442 260.988C84.0857 262.074 82.977 261.871 82.2567 261.849L80.5224 261.841C78.3252 261.837 76.0697 261.944 73.8821 261.752L73.8218 267.493C73.8867 277.402 80.749 286.417 90.9023 287.365C101.715 288.373 110.22 279.578 111.112 269.037C111.187 268.153 111.138 267.227 111.136 266.339L111.114 261.743L102.164 261.753C101.916 261.753 101.598 261.796 101.365 261.708C100.961 261.555 100.555 260.866 100.745 260.441C100.899 260.096 101.251 259.782 101.503 259.501L113.691 245.164C114.203 244.533 114.677 243.541 115.476 243.241L115.533 243.22C117.009 243.158 117.711 244.682 118.553 245.673L130.441 259.504C130.705 259.795 131.023 260.075 131.256 260.389C131.67 260.948 131.419 262.041 130.651 262.114C130.334 262.144 129.993 262.115 129.673 262.115L121.422 262.093C121.381 262.155 121.447 263.879 121.448 264.085C121.457 266.124 121.576 268.239 121.328 270.26C119.639 284.062 109.16 294.834 95.0414 296.111C79.1165 297.552 64.8672 285.42 63.5708 269.363C63.4856 268.307 63.5287 267.217 63.5286 266.157L63.5337 263.864C63.5387 263.31 63.534 262.744 63.6139 262.195L63.6271 262.11C63.4042 262.038 63.07 262.08 62.8295 262.065L55.4275 262.023C54.3025 262.039 53.5954 262.472 53.2193 261.063L53.3696 260.782C53.5636 260.489 53.8528 260.231 54.0944 259.976L59.5529 253.712Z"/>
	<path fill="#8D99AE" d="M144.449 277.57L144.449 234L148.59 234L160.962 262.939L160.962 234L166.018 234L166.018 277.57L162.145 277.57L149.612 247.824L149.612 277.57L144.449 277.57ZM180.972 278C178.533 278 176.651 277.525 175.324 276.575C173.997 275.624 173.074 274.226 172.554 272.379C172.034 270.532 171.774 268.264 171.774 265.575L171.774 258.474C171.774 255.713 172.043 253.418 172.581 251.589C173.119 249.76 174.06 248.38 175.405 247.447C176.749 246.515 178.605 246.049 180.972 246.049C183.59 246.049 185.517 246.587 186.754 247.663C187.991 248.738 188.807 250.289 189.202 252.315C189.596 254.341 189.793 256.771 189.793 259.604L189.793 262.132L177.529 262.132L177.529 268.372C177.529 269.627 177.646 270.649 177.879 271.438C178.112 272.227 178.489 272.809 179.009 273.186C179.529 273.562 180.201 273.751 181.026 273.751C181.886 273.751 182.541 273.544 182.989 273.132C183.437 272.72 183.742 272.128 183.903 271.357C184.065 270.586 184.145 269.681 184.145 268.641L184.145 266.758L189.74 266.758L189.74 267.941C189.74 271.061 189.076 273.518 187.749 275.311C186.423 277.103 184.163 278 180.972 278ZM177.529 259.012L184.145 259.012L184.145 256.215C184.145 254.924 184.074 253.839 183.93 252.961C183.787 252.082 183.491 251.419 183.043 250.971C182.595 250.522 181.886 250.298 180.918 250.298C179.986 250.298 179.278 250.513 178.793 250.944C178.309 251.374 177.978 252.1 177.798 253.122C177.619 254.144 177.529 255.552 177.529 257.345L177.529 259.012ZM199.476 278C198.256 278 197.306 277.677 196.625 277.032C195.943 276.386 195.468 275.579 195.199 274.611C194.93 273.643 194.796 272.657 194.796 271.653L194.796 246.479L200.551 246.479L200.551 269.932C200.551 271.043 200.713 271.913 201.035 272.54C201.358 273.168 202.021 273.482 203.026 273.482C203.671 273.482 204.344 273.293 205.043 272.917C205.742 272.54 206.414 272.083 207.06 271.545L207.06 246.479L212.815 246.479L212.815 277.57L207.06 277.57L207.06 274.504C206.056 275.472 204.917 276.297 203.644 276.978C202.371 277.659 200.982 278 199.476 278ZM226.962 278C225.348 278 224.048 277.695 223.062 277.086C222.076 276.476 221.359 275.615 220.911 274.504C220.463 273.392 220.238 272.083 220.238 270.577L220.238 250.298L216.957 250.298L216.957 246.479L220.238 246.479L220.238 237.389L225.994 237.389L225.994 246.479L230.996 246.479L230.996 250.298L225.994 250.298L225.994 270.2C225.994 271.42 226.191 272.289 226.586 272.809C226.98 273.329 227.733 273.589 228.845 273.589C229.131 273.589 229.463 273.571 229.84 273.535C230.216 273.5 230.584 273.464 230.943 273.428L230.943 277.677C230.226 277.785 229.562 277.866 228.952 277.919C228.343 277.973 227.679 278 226.962 278ZM235.407 277.57L235.407 246.479L241.163 246.479L241.163 250.89C242.31 248.989 243.458 247.716 244.605 247.071C245.752 246.425 246.9 246.103 248.048 246.103C248.191 246.103 248.326 246.103 248.451 246.103C248.576 246.103 248.747 246.121 248.962 246.156L248.962 252.504C248.532 252.324 248.039 252.172 247.483 252.046C246.927 251.921 246.362 251.858 245.789 251.858C244.892 251.858 244.076 252.064 243.341 252.477C242.606 252.889 241.88 253.687 241.163 254.87L241.163 277.57L235.407 277.57ZM256.708 278C255.488 278 254.413 277.65 253.48 276.951C252.548 276.252 251.813 275.355 251.275 274.262C250.737 273.168 250.468 272.011 250.468 270.792C250.468 268.856 250.791 267.224 251.436 265.897C252.082 264.57 252.969 263.45 254.099 262.535C255.229 261.621 256.537 260.823 258.026 260.142C259.514 259.46 261.083 258.797 262.732 258.152L262.732 255.946C262.732 254.691 262.661 253.651 262.517 252.826C262.373 252.002 262.078 251.383 261.63 250.971C261.182 250.558 260.509 250.352 259.612 250.352C258.823 250.352 258.187 250.531 257.703 250.89C257.219 251.249 256.869 251.76 256.654 252.423C256.439 253.086 256.331 253.866 256.331 254.763L256.331 256.323L250.63 256.108C250.701 252.665 251.49 250.128 252.996 248.496C254.502 246.865 256.833 246.049 259.989 246.049C263.073 246.049 265.26 246.892 266.551 248.577C267.842 250.262 268.488 252.701 268.488 255.892L268.488 270.093C268.488 271.061 268.515 271.993 268.568 272.89C268.622 273.786 268.694 274.62 268.784 275.391C268.873 276.162 268.954 276.888 269.026 277.57L263.754 277.57C263.647 276.996 263.512 276.27 263.351 275.391C263.189 274.513 263.073 273.715 263.001 272.998C262.642 274.217 261.952 275.355 260.93 276.413C259.908 277.471 258.501 278 256.708 278ZM258.967 273.051C259.541 273.051 260.079 272.89 260.581 272.567C261.083 272.244 261.531 271.877 261.925 271.465C262.32 271.052 262.589 270.72 262.732 270.469L262.732 261.648C261.836 262.15 260.993 262.652 260.204 263.154C259.415 263.656 258.725 264.185 258.133 264.741C257.542 265.297 257.075 265.924 256.735 266.623C256.394 267.323 256.224 268.121 256.224 269.017C256.224 270.272 256.457 271.258 256.923 271.976C257.389 272.693 258.07 273.051 258.967 273.051ZM278.708 278C277.488 278 276.413 277.65 275.48 276.951C274.548 276.252 273.813 275.355 273.275 274.262C272.737 273.168 272.468 272.011 272.468 270.792C272.468 268.856 272.791 267.224 273.436 265.897C274.082 264.57 274.969 263.45 276.099 262.535C277.229 261.621 278.537 260.823 280.026 260.142C281.514 259.46 283.083 258.797 284.732 258.152L284.732 255.946C284.732 254.691 284.661 253.651 284.517 252.826C284.373 252.002 284.078 251.383 283.63 250.971C283.182 250.558 282.509 250.352 281.612 250.352C280.823 250.352 280.187 250.531 279.703 250.89C279.219 251.249 278.869 251.76 278.654 252.423C278.439 253.086 278.331 253.866 278.331 254.763L278.331 256.323L272.63 256.108C272.701 252.665 273.49 250.128 274.996 248.496C276.502 246.865 278.833 246.049 281.989 246.049C285.073 246.049 287.26 246.892 288.551 248.577C289.842 250.262 290.488 252.701 290.488 255.892L290.488 270.093C290.488 271.061 290.515 271.993 290.568 272.89C290.622 273.786 290.694 274.62 290.784 275.391C290.873 276.162 290.954 276.888 291.026 277.57L285.754 277.57C285.647 276.996 285.512 276.27 285.351 275.391C285.189 274.513 285.073 273.715 285.001 272.998C284.642 274.217 283.952 275.355 282.93 276.413C281.908 277.471 280.501 278 278.708 278ZM280.967 273.051C281.541 273.051 282.079 272.89 282.581 272.567C283.083 272.244 283.531 271.877 283.925 271.465C284.32 271.052 284.589 270.72 284.732 270.469L284.732 261.648C283.836 262.15 282.993 262.652 282.204 263.154C281.415 263.656 280.725 264.185 280.133 264.741C279.542 265.297 279.075 265.924 278.735 266.623C278.394 267.323 278.224 268.121 278.224 269.017C278.224 270.272 278.457 271.258 278.923 271.976C279.389 272.693 280.07 273.051 280.967 273.051ZM296.566 277.57L296.566 234L302.322 234L302.322 277.57L296.566 277.57ZM321.148 277.57L321.148 234L327.226 234L327.226 254.548L337.231 234L342.879 234L334.273 253.203L344.278 277.57L338.361 277.57L330.023 257.13L327.226 262.186L327.226 277.57L321.148 277.57ZM347.666 277.57L347.666 246.479L353.422 246.479L353.422 277.57L347.666 277.57ZM347.666 241.853L347.666 235.829L353.422 235.829L353.422 241.853L347.666 241.853ZM368.214 278C365.776 278 363.893 277.525 362.566 276.575C361.239 275.624 360.316 274.226 359.796 272.379C359.276 270.532 359.016 268.264 359.016 265.575L359.016 258.474C359.016 255.713 359.285 253.418 359.823 251.589C360.361 249.76 361.302 248.38 362.647 247.447C363.991 246.515 365.847 246.049 368.214 246.049C370.832 246.049 372.759 246.587 373.996 247.663C375.233 248.738 376.049 250.289 376.444 252.315C376.838 254.341 377.035 256.771 377.035 259.604L377.035 262.132L364.771 262.132L364.771 268.372C364.771 269.627 364.888 270.649 365.121 271.438C365.354 272.227 365.73 272.809 366.251 273.186C366.771 273.562 367.443 273.751 368.268 273.751C369.128 273.751 369.783 273.544 370.231 273.132C370.679 272.72 370.984 272.128 371.145 271.357C371.307 270.586 371.388 269.681 371.388 268.641L371.388 266.758L376.982 266.758L376.982 267.941C376.982 271.061 376.318 273.518 374.991 275.311C373.664 277.103 371.405 278 368.214 278ZM364.771 259.012L371.388 259.012L371.388 256.215C371.388 254.924 371.316 253.839 371.172 252.961C371.029 252.082 370.733 251.419 370.285 250.971C369.837 250.522 369.128 250.298 368.16 250.298C367.228 250.298 366.52 250.513 366.035 250.944C365.551 251.374 365.219 252.1 365.04 253.122C364.861 254.144 364.771 255.552 364.771 257.345L364.771 259.012ZM389.461 278C386.915 278 384.871 277.202 383.329 275.606C381.787 274.011 380.908 271.904 380.693 269.286L385.48 267.834C385.767 269.806 386.251 271.285 386.933 272.271C387.614 273.258 388.618 273.751 389.945 273.751C390.985 273.751 391.774 273.455 392.312 272.863C392.85 272.271 393.119 271.474 393.119 270.469C393.119 269.573 392.921 268.766 392.527 268.049C392.133 267.332 391.487 266.597 390.59 265.844L385.265 261.271C384.189 260.339 383.284 259.299 382.549 258.152C381.814 257.004 381.446 255.516 381.446 253.687C381.446 252.037 381.778 250.648 382.441 249.518C383.105 248.389 384.037 247.528 385.238 246.936C386.44 246.345 387.847 246.049 389.461 246.049C392.043 246.049 394.015 246.847 395.378 248.443C396.74 250.038 397.529 251.966 397.744 254.225L393.656 255.677C393.513 254.601 393.298 253.66 393.011 252.853C392.724 252.046 392.312 251.419 391.774 250.971C391.236 250.522 390.537 250.298 389.676 250.298C388.744 250.298 387.999 250.612 387.444 251.24C386.888 251.867 386.61 252.611 386.61 253.472C386.61 254.01 386.727 254.539 386.96 255.059C387.193 255.579 387.596 256.09 388.17 256.592L393.656 261.648C394.41 262.329 395.118 263.064 395.781 263.853C396.444 264.642 396.991 265.539 397.422 266.543C397.852 267.547 398.067 268.712 398.067 270.039C398.067 271.796 397.708 273.267 396.991 274.45C396.274 275.633 395.27 276.521 393.979 277.112C392.688 277.704 391.182 278 389.461 278ZM402.855 277.57L402.855 234L408.933 234L408.933 273.213L420.067 273.213L420.067 277.57L402.855 277.57ZM428.405 278C427.185 278 426.109 277.65 425.177 276.951C424.245 276.252 423.51 275.355 422.972 274.262C422.434 273.168 422.165 272.011 422.165 270.792C422.165 268.856 422.488 267.224 423.133 265.897C423.779 264.57 424.666 263.45 425.796 262.535C426.925 261.621 428.234 260.823 429.722 260.142C431.211 259.46 432.779 258.797 434.429 258.152L434.429 255.946C434.429 254.691 434.358 253.651 434.214 252.826C434.07 252.002 433.774 251.383 433.326 250.971C432.878 250.558 432.206 250.352 431.309 250.352C430.52 250.352 429.884 250.531 429.4 250.89C428.916 251.249 428.566 251.76 428.351 252.423C428.136 253.086 428.028 253.866 428.028 254.763L428.028 256.323L422.326 256.108C422.398 252.665 423.187 250.128 424.693 248.496C426.199 246.865 428.53 246.049 431.686 246.049C434.77 246.049 436.957 246.892 438.248 248.577C439.539 250.262 440.185 252.701 440.185 255.892L440.185 270.093C440.185 271.061 440.211 271.993 440.265 272.89C440.319 273.786 440.391 274.62 440.48 275.391C440.57 276.162 440.651 276.888 440.722 277.57L435.451 277.57C435.344 276.996 435.209 276.27 435.048 275.391C434.886 274.513 434.77 273.715 434.698 272.998C434.339 274.217 433.649 275.355 432.627 276.413C431.605 277.471 430.197 278 428.405 278ZM430.664 273.051C431.238 273.051 431.776 272.89 432.277 272.567C432.779 272.244 433.228 271.877 433.622 271.465C434.017 271.052 434.285 270.72 434.429 270.469L434.429 261.648C433.532 262.15 432.69 262.652 431.901 263.154C431.112 263.656 430.422 264.185 429.83 264.741C429.238 265.297 428.772 265.924 428.432 266.623C428.091 267.323 427.921 268.121 427.921 269.017C427.921 270.272 428.153 271.258 428.62 271.976C429.086 272.693 429.767 273.051 430.664 273.051ZM456.859 278C455.748 278 454.752 277.722 453.874 277.166C452.996 276.61 452.233 275.992 451.588 275.311L451.588 277.57L445.833 277.57L445.833 234L451.588 234L451.588 248.954C452.27 248.165 453.085 247.483 454.035 246.91C454.986 246.336 456.124 246.049 457.451 246.049C459.065 246.049 460.347 246.47 461.297 247.313C462.248 248.156 462.955 249.214 463.422 250.487C463.888 251.76 464.193 253.051 464.336 254.359C464.48 255.668 464.551 256.789 464.551 257.721L464.551 265.252C464.551 267.439 464.336 269.51 463.906 271.465C463.476 273.419 462.705 274.997 461.593 276.198C460.481 277.399 458.903 278 456.859 278ZM455.676 273.482C456.68 273.482 457.397 273.114 457.828 272.379C458.258 271.644 458.527 270.649 458.634 269.394C458.742 268.139 458.796 266.758 458.796 265.252L458.796 257.721C458.796 256.43 458.724 255.238 458.581 254.144C458.437 253.051 458.133 252.181 457.666 251.535C457.2 250.89 456.465 250.567 455.461 250.567C454.708 250.567 453.999 250.729 453.336 251.051C452.673 251.374 452.09 251.733 451.588 252.127L451.588 272.083C452.09 272.478 452.691 272.809 453.39 273.078C454.089 273.347 454.851 273.482 455.676 273.482Z"/>
</svg>
