<?xml version="1.0" encoding="utf-8" ?>
<svg xmlns="http://www.w3.org/2000/svg" xmlns:xlink="http://www.w3.org/1999/xlink" width="512" height="512">
	<path fill="#EDF2F4" d="M0 0L0 512L512 512L512 0L0 0Z"/>
	<path fill="#2B2D42" d="M64.1847 102.644L60.7013 102.638C59.6358 102.633 56.6452 102.477 56.4898 100.939C56.4305 100.352 56.5093 99.7295 56.511 99.138L56.3922 78.3555C56.3867 77.5907 56.2218 76.8667 56.197 76.125L56.1745 69.5032C56.162 68.9425 56.0603 68.395 56.048 67.8377L56.0127 64.0092C55.9937 63.6078 55.9017 63.214 55.8903 62.8125L55.8685 56.782C55.858 56.1262 55.7127 55.4865 55.6942 54.8438L55.6748 48C55.6703 47.245 55.5335 46.507 55.5222 45.7623L55.4832 38.6635C55.1857 38.6052 54.838 38.6392 54.535 38.6388L43.3468 38.6495C43.003 38.655 42.4525 38.7435 42.1562 38.5782C40.3807 37.5868 42.8915 35.77 43.5712 35.0393L61.1275 14.7996C61.9198 13.8571 62.559 12.6785 63.8608 12.4552C64.6868 12.4659 65.2345 12.8025 65.7878 13.4015L84.4315 35.0358C85.144 35.8708 86.135 36.6243 86.6008 37.6262C86.1898 38.9487 85.4753 38.8135 84.338 38.8088L72.6295 38.833C72.5583 39.3233 72.5925 39.847 72.5902 40.3422L72.5725 42.9552C72.5593 43.5475 72.4573 44.1317 72.4433 44.7188L72.3135 57.95C72.237 60.3347 72.1637 62.7112 72.0457 65.092L71.9223 75.9375C71.919 76.6423 71.8135 77.333 71.797 78.0312L71.6398 90.8602C71.6232 91.488 71.5367 92.1028 71.5325 92.7338L71.5245 98.1107C71.5208 101.478 71.6488 102.635 67.5042 102.643L64.1847 102.644Z"/>
	<path fill="#2B2D42" d="M17.2149 60.7452L29.1483 46.4105C31.2155 44.272 34.1895 49.139 35.3952 50.5558L50.4485 68.335C51.0478 69.0355 52.2435 70.0833 52.1893 71.0938C52.106 72.6388 50.5292 72.3492 49.5048 72.3192L47.0382 72.307C43.9132 72.3015 40.7055 72.4537 37.5943 72.1808L37.5085 80.3455C37.6007 94.4377 47.3605 107.26 61.8008 108.608C77.1787 110.042 89.275 97.5325 90.543 82.5415C90.6495 81.2848 90.58 79.9673 90.5775 78.7048L90.5463 72.1685L77.8178 72.1815C77.4643 72.1827 77.012 72.2425 76.6813 72.1175C76.1058 71.9 75.5288 70.9205 75.7987 70.3165C76.0178 69.826 76.5192 69.379 76.8778 68.9785L94.2115 48.5892C94.9398 47.6908 95.6132 46.2803 96.7495 45.8537L96.8317 45.8237C98.9308 45.736 99.928 47.903 101.127 49.3122L118.033 68.984C118.409 69.397 118.862 69.7952 119.193 70.2422C119.782 71.0375 119.424 72.5913 118.332 72.6955C117.881 72.7385 117.397 72.6972 116.942 72.6963L105.206 72.6655C105.148 72.7535 105.242 75.2055 105.243 75.4993C105.256 78.3988 105.425 81.406 105.073 84.2805C102.67 103.91 87.7668 119.231 67.6875 121.047C45.0388 123.096 24.7731 105.842 22.9293 83.0055C22.8081 81.5032 22.8693 79.9532 22.8692 78.4453L22.8766 75.184C22.8836 74.3967 22.8769 73.591 22.9905 72.8102L23.0093 72.6895C22.6923 72.5872 22.217 72.6467 21.875 72.6262L11.3476 72.5665C9.74762 72.5888 8.74195 73.2043 8.2071 71.2013L8.42085 70.8015C8.69683 70.384 9.10805 70.0178 9.45172 69.6545L17.2149 60.7452Z"/>
	<path fill="#8D99AE" d="M191.815 25.3555L195.299 25.3618C196.364 25.3667 199.355 25.5233 199.51 27.061C199.57 27.648 199.491 28.2705 199.489 28.862L199.608 49.6445C199.613 50.4093 199.778 51.1333 199.803 51.875L199.826 58.4968C199.838 59.0575 199.94 59.605 199.952 60.1623L199.987 63.9908C200.006 64.3922 200.098 64.786 200.11 65.1875L200.132 71.218C200.142 71.8738 200.287 72.5135 200.306 73.1562L200.325 80C200.33 80.755 200.466 81.493 200.478 82.2378L200.517 89.3365C200.814 89.3948 201.162 89.3607 201.465 89.3612L212.653 89.3505C212.997 89.345 213.548 89.2565 213.844 89.4218C215.619 90.4133 213.108 92.23 212.429 92.9607L194.873 113.2C194.08 114.143 193.441 115.322 192.139 115.545C191.313 115.534 190.766 115.197 190.212 114.598L171.569 92.9642C170.856 92.1292 169.865 91.3757 169.399 90.3738C169.81 89.0513 170.525 89.1865 171.662 89.1912L183.37 89.167C183.442 88.6767 183.407 88.153 183.41 87.6577L183.428 85.0447C183.441 84.4525 183.543 83.8683 183.557 83.2812L183.686 70.05C183.763 67.6653 183.836 65.2887 183.954 62.908L184.078 52.0625C184.081 51.3577 184.186 50.667 184.203 49.9688L184.36 37.1398C184.377 36.512 184.463 35.8972 184.468 35.2662L184.476 29.8893C184.479 26.5217 184.351 25.3645 188.496 25.3568L191.815 25.3555Z"/>
	<path fill="#8D99AE" d="M238.785 67.2548L226.852 81.5895C224.784 83.728 221.81 78.861 220.605 77.4442L205.552 59.665C204.952 58.9645 203.757 57.9167 203.811 56.9062C203.894 55.3612 205.471 55.6508 206.495 55.6808L208.962 55.693C212.087 55.6985 215.294 55.5463 218.406 55.8192L218.492 47.6545C218.399 33.5623 208.639 20.7398 194.199 19.3925C178.821 17.9578 166.725 30.4675 165.457 45.4585C165.351 46.7152 165.42 48.0327 165.423 49.2952L165.454 55.8315L178.182 55.8185C178.536 55.8173 178.988 55.7575 179.319 55.8825C179.894 56.1 180.471 57.0795 180.201 57.6835C179.982 58.174 179.481 58.621 179.122 59.0215L161.788 79.4108C161.06 80.3092 160.387 81.7198 159.25 82.1463L159.168 82.1763C157.069 82.264 156.072 80.097 154.873 78.6877L137.967 59.016C137.591 58.603 137.138 58.2048 136.807 57.7578C136.218 56.9625 136.576 55.4087 137.667 55.3045C138.119 55.2615 138.603 55.3028 139.058 55.3037L150.794 55.3345C150.851 55.2465 150.758 52.7945 150.757 52.5007C150.744 49.6012 150.575 46.594 150.927 43.7195C153.33 24.0895 168.233 8.76925 188.312 6.953C210.961 4.90425 231.227 22.1577 233.071 44.9945C233.192 46.4968 233.131 48.0468 233.131 49.5547L233.123 52.816C233.116 53.6033 233.123 54.409 233.009 55.1898L232.991 55.3105C233.308 55.4128 233.783 55.3533 234.125 55.3738L244.652 55.4335C246.252 55.4112 247.258 54.7957 247.793 56.7987L247.579 57.1985C247.303 57.616 246.892 57.9822 246.548 58.3455L238.785 67.2548Z"/>
	<path fill="#2B2D42" d="M320.185 102.644L316.701 102.638C315.636 102.633 312.645 102.477 312.49 100.939C312.43 100.352 312.509 99.7295 312.511 99.138L312.392 78.3555C312.387 77.5907 312.222 76.8667 312.197 76.125L312.175 69.5032C312.162 68.9425 312.06 68.395 312.048 67.8377L312.013 64.0092C311.994 63.6078 311.902 63.214 311.89 62.8125L311.868 56.782C311.858 56.1262 311.713 55.4865 311.694 54.8438L311.675 48C311.67 47.245 311.534 46.507 311.522 45.7623L311.483 38.6635C311.186 38.6052 310.838 38.6392 310.535 38.6388L299.347 38.6495C299.003 38.655 298.452 38.7435 298.156 38.5782C296.381 37.5868 298.892 35.77 299.571 35.0393L317.127 14.7996C317.92 13.8571 318.559 12.6785 319.861 12.4552C320.687 12.4659 321.235 12.8025 321.788 13.4015L340.432 35.0358C341.144 35.8708 342.135 36.6243 342.601 37.6262C342.19 38.9487 341.475 38.8135 340.338 38.8088L328.63 38.833C328.558 39.3233 328.592 39.847 328.59 40.3422L328.572 42.9552C328.559 43.5475 328.457 44.1317 328.443 44.7188L328.313 57.95C328.237 60.3347 328.164 62.7112 328.046 65.092L327.922 75.9375C327.919 76.6423 327.813 77.333 327.797 78.0312L327.64 90.8602C327.623 91.488 327.537 92.1028 327.533 92.7338L327.524 98.1107C327.521 101.478 327.649 102.635 323.504 102.643L320.185 102.644Z"/>
	<path fill="#2B2D42" d="M273.215 60.7452L285.148 46.4105C287.216 44.272 290.19 49.139 291.395 50.5558L306.449 68.335C307.048 69.0355 308.243 70.0833 308.189 71.0938C308.106 72.6388 306.529 72.3492 305.505 72.3192L303.038 72.307C299.913 72.3015 296.706 72.4537 293.594 72.1808L293.509 80.3455C293.601 94.4377 303.361 107.26 317.801 108.608C333.179 110.042 345.275 97.5325 346.543 82.5415C346.649 81.2848 346.58 79.9673 346.577 78.7048L346.546 72.1685L333.818 72.1815C333.464 72.1827 333.012 72.2425 332.681 72.1175C332.106 71.9 331.529 70.9205 331.799 70.3165C332.018 69.826 332.519 69.379 332.878 68.9785L350.212 48.5892C350.94 47.6908 351.613 46.2803 352.75 45.8537L352.832 45.8237C354.931 45.736 355.928 47.903 357.127 49.3122L374.033 68.984C374.409 69.397 374.862 69.7952 375.193 70.2422C375.782 71.0375 375.424 72.5913 374.332 72.6955C373.881 72.7385 373.397 72.6972 372.942 72.6963L361.206 72.6655C361.148 72.7535 361.242 75.2055 361.243 75.4993C361.256 78.3988 361.425 81.406 361.073 84.2805C358.67 103.91 343.767 119.231 323.688 121.047C301.039 123.096 280.773 105.842 278.929 83.0055C278.808 81.5032 278.869 79.9532 278.869 78.4453L278.877 75.184C278.884 74.3967 278.877 73.591 278.99 72.8102L279.009 72.6895C278.692 72.5872 278.217 72.6467 277.875 72.6262L267.348 72.5665C265.748 72.5888 264.742 73.2043 264.207 71.2013L264.421 70.8015C264.697 70.384 265.108 70.0178 265.452 69.6545L273.215 60.7452Z"/>
	<path fill="#8D99AE" d="M447.815 25.3555L451.299 25.3618C452.364 25.3667 455.355 25.5233 455.51 27.061C455.57 27.648 455.491 28.2705 455.489 28.862L455.608 49.6445C455.613 50.4093 455.778 51.1333 455.803 51.875L455.826 58.4968C455.838 59.0575 455.94 59.605 455.952 60.1623L455.987 63.9908C456.006 64.3922 456.098 64.786 456.11 65.1875L456.132 71.218C456.142 71.8738 456.287 72.5135 456.306 73.1562L456.325 80C456.33 80.755 456.466 81.493 456.478 82.2378L456.517 89.3365C456.814 89.3948 457.162 89.3607 457.465 89.3612L468.653 89.3505C468.997 89.345 469.548 89.2565 469.844 89.4218C471.619 90.4133 469.108 92.23 468.429 92.9607L450.873 113.2C450.08 114.143 449.441 115.322 448.139 115.545C447.313 115.534 446.765 115.197 446.212 114.598L427.568 92.9642C426.856 92.1292 425.865 91.3757 425.399 90.3738C425.81 89.0513 426.525 89.1865 427.662 89.1912L439.37 89.167C439.442 88.6767 439.408 88.153 439.41 87.6577L439.428 85.0447C439.441 84.4525 439.543 83.8683 439.557 83.2812L439.687 70.05C439.763 67.6653 439.836 65.2887 439.954 62.908L440.078 52.0625C440.081 51.3577 440.187 50.667 440.203 49.9688L440.36 37.1398C440.377 36.512 440.463 35.8972 440.467 35.2662L440.476 29.8893C440.479 26.5217 440.351 25.3645 444.496 25.3568L447.815 25.3555Z"/>
	<path fill="#8D99AE" d="M494.785 67.2548L482.852 81.5895C480.784 83.728 477.81 78.861 476.605 77.4442L461.552 59.665C460.952 58.9645 459.757 57.9167 459.811 56.9062C459.894 55.3612 461.471 55.6508 462.495 55.6808L464.962 55.693C468.087 55.6985 471.294 55.5463 474.406 55.8192L474.491 47.6545C474.399 33.5623 464.639 20.7398 450.199 19.3925C434.821 17.9578 422.725 30.4675 421.457 45.4585C421.351 46.7152 421.42 48.0327 421.423 49.2952L421.454 55.8315L434.182 55.8185C434.536 55.8173 434.988 55.7575 435.319 55.8825C435.894 56.1 436.471 57.0795 436.201 57.6835C435.982 58.174 435.481 58.621 435.122 59.0215L417.788 79.4108C417.06 80.3092 416.387 81.7198 415.25 82.1463L415.168 82.1763C413.069 82.264 412.072 80.097 410.873 78.6877L393.967 59.016C393.591 58.603 393.138 58.2048 392.807 57.7578C392.218 56.9625 392.576 55.4087 393.668 55.3045C394.119 55.2615 394.603 55.3028 395.058 55.3037L406.794 55.3345C406.851 55.2465 406.759 52.7945 406.757 52.5007C406.744 49.6012 406.575 46.594 406.927 43.7195C409.33 24.0895 424.233 8.76925 444.312 6.953C466.961 4.90425 487.227 22.1577 489.071 44.9945C489.192 46.4968 489.131 48.0468 489.131 49.5547L489.123 52.816C489.116 53.6033 489.123 54.409 489.009 55.1898L488.991 55.3105C489.308 55.4128 489.783 55.3533 490.125 55.3738L500.652 55.4335C502.252 55.4112 503.258 54.7957 503.793 56.7987L503.579 57.1985C503.303 57.616 502.892 57.9822 502.548 58.3455L494.785 67.2548Z"/>
	<path fill="#8D99AE" d="M-0.1847 153.356L3.2987 153.362C4.3642 153.367 7.3547 153.523 7.5102 155.061C7.5695 155.648 7.4907 156.27 7.489 156.862L7.6078 177.644C7.6132 178.409 7.7782 179.133 7.803 179.875L7.8255 186.497C7.838 187.058 7.9398 187.605 7.952 188.162L7.9873 191.991C8.0062 192.392 8.0983 192.786 8.1097 193.188L8.1315 199.218C8.142 199.874 8.2873 200.513 8.3058 201.156L8.3252 208C8.3297 208.755 8.4665 209.493 8.4778 210.238L8.5168 217.337C8.8143 217.395 9.162 217.361 9.465 217.361L20.6532 217.351C20.997 217.345 21.5475 217.257 21.8438 217.422C23.6192 218.413 21.1085 220.23 20.4288 220.961L2.8725 241.2C2.0803 242.143 1.441 243.322 0.1393 243.545C-0.6868 243.534 -1.2345 243.197 -1.7878 242.598L-20.4315 220.964C-21.144 220.129 -22.135 219.376 -22.6008 218.374C-22.1898 217.051 -21.4753 217.186 -20.338 217.191L-8.6295 217.167C-8.5583 216.677 -8.5925 216.153 -8.5902 215.658L-8.5725 213.045C-8.5593 212.452 -8.4573 211.868 -8.4433 211.281L-8.3135 198.05C-8.237 195.665 -8.1637 193.289 -8.0457 190.908L-7.9223 180.062C-7.919 179.358 -7.8135 178.667 -7.797 177.969L-7.6398 165.14C-7.6232 164.512 -7.5367 163.897 -7.5325 163.266L-7.5245 157.889C-7.5208 154.522 -7.6488 153.364 -3.5042 153.357L-0.1847 153.356Z"/>
	<path fill="#8D99AE" d="M46.785 195.255L34.8517 209.589C32.7845 211.728 29.8105 206.861 28.6047 205.444L13.5515 187.665C12.9522 186.964 11.7565 185.917 11.8107 184.906C11.894 183.361 13.4708 183.651 14.4952 183.681L16.9617 183.693C20.0867 183.698 23.2945 183.546 26.4057 183.819L26.4915 175.654C26.3992 161.562 16.6395 148.74 2.1993 147.392C-13.1787 145.958 -25.275 158.468 -26.543 173.459C-26.6495 174.715 -26.58 176.033 -26.5775 177.295L-26.5463 183.832L-13.8178 183.819C-13.4643 183.817 -13.012 183.757 -12.6813 183.882C-12.1058 184.1 -11.5288 185.079 -11.7987 185.684C-12.0178 186.174 -12.5192 186.621 -12.8778 187.022L-30.2115 207.411C-30.9398 208.309 -31.6132 209.72 -32.7495 210.146L-32.8317 210.176C-34.9308 210.264 -35.928 208.097 -37.1268 206.688L-54.033 187.016C-54.4093 186.603 -54.8618 186.205 -55.193 185.758C-55.782 184.963 -55.424 183.409 -54.3325 183.304C-53.8812 183.262 -53.3967 183.303 -52.9417 183.304L-41.206 183.334C-41.1485 183.246 -41.2415 180.794 -41.243 180.501C-41.2562 177.601 -41.425 174.594 -41.0733 171.719C-38.6702 152.089 -23.7668 136.769 -3.6875 134.953C18.9613 132.904 39.227 150.158 41.071 172.995C41.192 174.497 41.131 176.047 41.131 177.555L41.123 180.816C41.116 181.603 41.123 182.409 41.009 183.19L40.991 183.31C41.308 183.413 41.783 183.353 42.125 183.374L52.652 183.434C54.252 183.411 55.258 182.796 55.793 184.799L55.579 185.198C55.303 185.616 54.892 185.982 54.548 186.346L46.785 195.255Z"/>
	<path fill="#2B2D42" d="M128.185 230.644L124.701 230.638C123.636 230.633 120.645 230.477 120.49 228.939C120.43 228.352 120.509 227.73 120.511 227.138L120.392 206.356C120.387 205.591 120.222 204.867 120.197 204.125L120.174 197.503C120.162 196.942 120.06 196.395 120.048 195.838L120.013 192.009C119.994 191.608 119.902 191.214 119.89 190.812L119.868 184.782C119.858 184.126 119.713 183.487 119.694 182.844L119.675 176C119.67 175.245 119.534 174.507 119.522 173.762L119.483 166.663C119.186 166.605 118.838 166.639 118.535 166.639L107.347 166.649C107.003 166.655 106.453 166.743 106.156 166.578C104.381 165.587 106.892 163.77 107.571 163.039L125.127 142.8C125.92 141.857 126.559 140.678 127.861 140.455C128.687 140.466 129.234 140.803 129.788 141.401L148.431 163.036C149.144 163.871 150.135 164.624 150.601 165.626C150.19 166.949 149.475 166.814 148.338 166.809L136.63 166.833C136.558 167.323 136.593 167.847 136.59 168.342L136.572 170.955C136.559 171.548 136.457 172.132 136.443 172.719L136.314 185.95C136.237 188.335 136.164 190.711 136.046 193.092L135.922 203.938C135.919 204.642 135.814 205.333 135.797 206.031L135.64 218.86C135.623 219.488 135.537 220.103 135.532 220.734L135.524 226.111C135.521 229.478 135.649 230.635 131.504 230.643L128.185 230.644Z"/>
	<path fill="#2B2D42" d="M81.2149 188.745L93.1483 174.411C95.2155 172.272 98.1895 177.139 99.3952 178.556L114.448 196.335C115.048 197.036 116.243 198.083 116.189 199.094C116.106 200.639 114.529 200.349 113.505 200.319L111.038 200.307C107.913 200.302 104.706 200.454 101.594 200.181L101.508 208.346C101.601 222.438 111.361 235.26 125.801 236.608C141.179 238.042 153.275 225.532 154.543 210.541C154.649 209.285 154.58 207.967 154.577 206.705L154.546 200.168L141.818 200.181C141.464 200.183 141.012 200.243 140.681 200.118C140.106 199.9 139.529 198.921 139.799 198.317C140.018 197.826 140.519 197.379 140.878 196.978L158.212 176.589C158.94 175.691 159.613 174.28 160.75 173.854L160.832 173.824C162.931 173.736 163.928 175.903 165.127 177.312L182.033 196.984C182.409 197.397 182.862 197.795 183.193 198.242C183.782 199.037 183.424 200.591 182.332 200.695C181.881 200.738 181.397 200.697 180.942 200.696L169.206 200.666C169.148 200.754 169.242 203.206 169.243 203.499C169.256 206.399 169.425 209.406 169.073 212.281C166.67 231.91 151.767 247.231 131.688 249.047C109.039 251.096 88.7731 233.842 86.9293 211.005C86.8081 209.503 86.8693 207.953 86.8692 206.445L86.8766 203.184C86.8836 202.397 86.8769 201.591 86.9905 200.81L87.0093 200.69C86.6923 200.587 86.217 200.647 85.875 200.626L75.3476 200.567C73.7476 200.589 72.742 201.204 72.2071 199.201L72.4209 198.802C72.6968 198.384 73.1081 198.018 73.4517 197.654L81.2149 188.745Z"/>
	<path fill="#8D99AE" d="M255.815 153.356L259.299 153.362C260.364 153.367 263.355 153.523 263.51 155.061C263.57 155.648 263.491 156.27 263.489 156.862L263.608 177.644C263.613 178.409 263.778 179.133 263.803 179.875L263.826 186.497C263.838 187.058 263.94 187.605 263.952 188.162L263.987 191.991C264.006 192.392 264.098 192.786 264.11 193.188L264.132 199.218C264.142 199.874 264.287 200.513 264.306 201.156L264.325 208C264.33 208.755 264.466 209.493 264.478 210.238L264.517 217.337C264.814 217.395 265.162 217.361 265.465 217.361L276.653 217.351C276.997 217.345 277.548 217.257 277.844 217.422C279.619 218.413 277.108 220.23 276.429 220.961L258.873 241.2C258.08 242.143 257.441 243.322 256.139 243.545C255.313 243.534 254.766 243.197 254.212 242.598L235.569 220.964C234.856 220.129 233.865 219.376 233.399 218.374C233.81 217.051 234.525 217.186 235.662 217.191L247.37 217.167C247.442 216.677 247.407 216.153 247.41 215.658L247.428 213.045C247.441 212.452 247.543 211.868 247.557 211.281L247.686 198.05C247.763 195.665 247.836 193.289 247.954 190.908L248.078 180.062C248.081 179.358 248.186 178.667 248.203 177.969L248.36 165.14C248.377 164.512 248.463 163.897 248.468 163.266L248.476 157.889C248.479 154.522 248.351 153.364 252.496 153.357L255.815 153.356Z"/>
	<path fill="#8D99AE" d="M302.785 195.255L290.852 209.589C288.784 211.728 285.81 206.861 284.605 205.444L269.552 187.665C268.952 186.964 267.757 185.917 267.811 184.906C267.894 183.361 269.471 183.651 270.495 183.681L272.962 183.693C276.087 183.698 279.294 183.546 282.406 183.819L282.491 175.654C282.399 161.562 272.639 148.74 258.199 147.392C242.821 145.958 230.725 158.468 229.457 173.459C229.351 174.715 229.42 176.033 229.423 177.295L229.454 183.832L242.182 183.819C242.536 183.817 242.988 183.757 243.319 183.882C243.894 184.1 244.471 185.079 244.201 185.684C243.982 186.174 243.481 186.621 243.122 187.022L225.788 207.411C225.06 208.309 224.387 209.72 223.25 210.146L223.168 210.176C221.069 210.264 220.072 208.097 218.873 206.688L201.967 187.016C201.591 186.603 201.138 186.205 200.807 185.758C200.218 184.963 200.576 183.409 201.667 183.304C202.119 183.262 202.603 183.303 203.058 183.304L214.794 183.334C214.851 183.246 214.758 180.794 214.757 180.501C214.744 177.601 214.575 174.594 214.927 171.719C217.33 152.089 232.233 136.769 252.312 134.953C274.961 132.904 295.227 150.158 297.071 172.995C297.192 174.497 297.131 176.047 297.131 177.555L297.123 180.816C297.116 181.603 297.123 182.409 297.009 183.19L296.991 183.31C297.308 183.413 297.783 183.353 298.125 183.374L308.652 183.434C310.252 183.411 311.258 182.796 311.793 184.799L311.579 185.198C311.303 185.616 310.892 185.982 310.548 186.346L302.785 195.255Z"/>
	<path fill="#2B2D42" d="M384.185 230.644L380.701 230.638C379.636 230.633 376.645 230.477 376.49 228.939C376.43 228.352 376.509 227.73 376.511 227.138L376.392 206.356C376.387 205.591 376.222 204.867 376.197 204.125L376.175 197.503C376.162 196.942 376.06 196.395 376.048 195.838L376.013 192.009C375.994 191.608 375.902 191.214 375.89 190.812L375.868 184.782C375.858 184.126 375.713 183.487 375.694 182.844L375.675 176C375.67 175.245 375.534 174.507 375.522 173.762L375.483 166.663C375.186 166.605 374.838 166.639 374.535 166.639L363.347 166.649C363.003 166.655 362.452 166.743 362.156 166.578C360.381 165.587 362.892 163.77 363.571 163.039L381.127 142.8C381.92 141.857 382.559 140.678 383.861 140.455C384.687 140.466 385.235 140.803 385.788 141.401L404.432 163.036C405.144 163.871 406.135 164.624 406.601 165.626C406.19 166.949 405.475 166.814 404.338 166.809L392.63 166.833C392.558 167.323 392.592 167.847 392.59 168.342L392.572 170.955C392.559 171.548 392.457 172.132 392.443 172.719L392.313 185.95C392.237 188.335 392.164 190.711 392.046 193.092L391.922 203.938C391.919 204.642 391.813 205.333 391.797 206.031L391.64 218.86C391.623 219.488 391.537 220.103 391.533 220.734L391.524 226.111C391.521 229.478 391.649 230.635 387.504 230.643L384.185 230.644Z"/>
	<path fill="#2B2D42" d="M337.215 188.745L349.148 174.411C351.216 172.272 354.19 177.139 355.395 178.556L370.449 196.335C371.048 197.036 372.243 198.083 372.189 199.094C372.106 200.639 370.529 200.349 369.505 200.319L367.038 200.307C363.913 200.302 360.706 200.454 357.594 200.181L357.509 208.346C357.601 222.438 367.361 235.26 381.801 236.608C397.179 238.042 409.275 225.532 410.543 210.541C410.649 209.285 410.58 207.967 410.577 206.705L410.546 200.168L397.818 200.181C397.464 200.183 397.012 200.243 396.681 200.118C396.106 199.9 395.529 198.921 395.799 198.317C396.018 197.826 396.519 197.379 396.878 196.978L414.212 176.589C414.94 175.691 415.613 174.28 416.75 173.854L416.832 173.824C418.931 173.736 419.928 175.903 421.127 177.312L438.033 196.984C438.409 197.397 438.862 197.795 439.193 198.242C439.782 199.037 439.424 200.591 438.332 200.695C437.881 200.738 437.397 200.697 436.942 200.696L425.206 200.666C425.148 200.754 425.242 203.206 425.243 203.499C425.256 206.399 425.425 209.406 425.073 212.281C422.67 231.91 407.767 247.231 387.688 249.047C365.039 251.096 344.773 233.842 342.929 211.005C342.808 209.503 342.869 207.953 342.869 206.445L342.877 203.184C342.884 202.397 342.877 201.591 342.99 200.81L343.009 200.69C342.692 200.587 342.217 200.647 341.875 200.626L331.348 200.567C329.748 200.589 328.742 201.204 328.207 199.201L328.421 198.802C328.697 198.384 329.108 198.018 329.452 197.654L337.215 188.745Z"/>
	<path fill="#8D99AE" d="M511.815 153.356L515.299 153.362C516.364 153.367 519.355 153.523 519.51 155.061C519.57 155.648 519.491 156.27 519.489 156.862L519.608 177.644C519.613 178.409 519.778 179.133 519.803 179.875L519.826 186.497C519.838 187.058 519.94 187.605 519.952 188.162L519.987 191.991C520.006 192.392 520.098 192.786 520.11 193.188L520.131 199.218C520.142 199.874 520.287 200.513 520.306 201.156L520.325 208C520.33 208.755 520.466 209.493 520.478 210.238L520.517 217.337C520.814 217.395 521.162 217.361 521.465 217.361L532.653 217.351C532.997 217.345 533.548 217.257 533.844 217.422C535.619 218.413 533.109 220.23 532.429 220.961L514.872 241.2C514.08 242.143 513.441 243.322 512.139 243.545C511.313 243.534 510.765 243.197 510.212 242.598L491.568 220.964C490.856 220.129 489.865 219.376 489.399 218.374C489.81 217.051 490.525 217.186 491.662 217.191L503.37 217.167C503.442 216.677 503.408 216.153 503.41 215.658L503.428 213.045C503.441 212.452 503.543 211.868 503.557 211.281L503.687 198.05C503.763 195.665 503.836 193.289 503.954 190.908L504.078 180.062C504.081 179.358 504.187 178.667 504.203 177.969L504.36 165.14C504.377 164.512 504.463 163.897 504.467 163.266L504.476 157.889C504.479 154.522 504.351 153.364 508.496 153.357L511.815 153.356Z"/>
	<path fill="#8D99AE" d="M558.785 195.255L546.852 209.589C544.784 211.728 541.811 206.861 540.605 205.444L525.552 187.665C524.952 186.964 523.756 185.917 523.811 184.906C523.894 183.361 525.471 183.651 526.495 183.681L528.962 183.693C532.087 183.698 535.294 183.546 538.406 183.819L538.491 175.654C538.399 161.562 528.639 148.74 514.199 147.392C498.821 145.958 486.725 158.468 485.457 173.459C485.351 174.715 485.42 176.033 485.423 177.295L485.454 183.832L498.182 183.819C498.536 183.817 498.988 183.757 499.319 183.882C499.894 184.1 500.471 185.079 500.201 185.684C499.982 186.174 499.481 186.621 499.122 187.022L481.788 207.411C481.06 208.309 480.387 209.72 479.25 210.146L479.168 210.176C477.069 210.264 476.072 208.097 474.873 206.688L457.967 187.016C457.591 186.603 457.138 186.205 456.807 185.758C456.218 184.963 456.576 183.409 457.668 183.304C458.119 183.262 458.603 183.303 459.058 183.304L470.794 183.334C470.851 183.246 470.759 180.794 470.757 180.501C470.744 177.601 470.575 174.594 470.927 171.719C473.33 152.089 488.233 136.769 508.312 134.953C530.961 132.904 551.227 150.158 553.071 172.995C553.192 174.497 553.131 176.047 553.131 177.555L553.123 180.816C553.116 181.603 553.123 182.409 553.009 183.19L552.991 183.31C553.308 183.413 553.783 183.353 554.125 183.374L564.652 183.434C566.252 183.411 567.258 182.796 567.793 184.799L567.579 185.198C567.303 185.616 566.892 185.982 566.548 186.346L558.785 195.255Z"/>
	<path fill="#2B2D42" d="M64.1847 358.644L60.7013 358.638C59.6358 358.633 56.6452 358.477 56.4898 356.939C56.4305 356.352 56.5093 355.73 56.511 355.138L56.3922 334.356C56.3867 333.591 56.2218 332.867 56.197 332.125L56.1745 325.503C56.162 324.942 56.0603 324.395 56.048 323.838L56.0127 320.009C55.9937 319.608 55.9017 319.214 55.8903 318.812L55.8685 312.782C55.858 312.126 55.7127 311.486 55.6942 310.844L55.6748 304C55.6703 303.245 55.5335 302.507 55.5222 301.762L55.4832 294.663C55.1857 294.605 54.838 294.639 54.535 294.639L43.3468 294.649C43.003 294.655 42.4525 294.743 42.1562 294.578C40.3807 293.587 42.8915 291.77 43.5712 291.039L61.1275 270.8C61.9198 269.857 62.559 268.678 63.8608 268.455C64.6868 268.466 65.2345 268.803 65.7878 269.401L84.4315 291.036C85.144 291.871 86.135 292.624 86.6008 293.626C86.1898 294.949 85.4753 294.813 84.338 294.809L72.6295 294.833C72.5583 295.323 72.5925 295.847 72.5902 296.342L72.5725 298.955C72.5593 299.548 72.4573 300.132 72.4433 300.719L72.3135 313.95C72.237 316.335 72.1637 318.711 72.0457 321.092L71.9223 331.938C71.919 332.642 71.8135 333.333 71.797 334.031L71.6398 346.86C71.6232 347.488 71.5367 348.103 71.5325 348.734L71.5245 354.111C71.5208 357.478 71.6488 358.635 67.5042 358.643L64.1847 358.644Z"/>
	<path fill="#2B2D42" d="M17.2149 316.745L29.1483 302.411C31.2155 300.272 34.1895 305.139 35.3952 306.556L50.4485 324.335C51.0478 325.036 52.2435 326.083 52.1893 327.094C52.106 328.639 50.5292 328.349 49.5048 328.319L47.0382 328.307C43.9132 328.302 40.7055 328.454 37.5943 328.181L37.5085 336.346C37.6007 350.438 47.3605 363.26 61.8008 364.608C77.1787 366.042 89.275 353.533 90.543 338.541C90.6495 337.285 90.58 335.967 90.5775 334.705L90.5463 328.168L77.8178 328.182C77.4643 328.183 77.012 328.243 76.6813 328.118C76.1058 327.9 75.5288 326.921 75.7987 326.317C76.0178 325.826 76.5192 325.379 76.8778 324.978L94.2115 304.589C94.9398 303.691 95.6132 302.28 96.7495 301.854L96.8317 301.824C98.9308 301.736 99.928 303.903 101.127 305.312L118.033 324.984C118.409 325.397 118.862 325.795 119.193 326.242C119.782 327.038 119.424 328.591 118.332 328.695C117.881 328.738 117.397 328.697 116.942 328.696L105.206 328.666C105.148 328.754 105.242 331.206 105.243 331.499C105.256 334.399 105.425 337.406 105.073 340.281C102.67 359.91 87.7668 375.231 67.6875 377.047C45.0388 379.096 24.7731 361.842 22.9293 339.005C22.8081 337.503 22.8693 335.953 22.8692 334.445L22.8766 331.184C22.8836 330.397 22.8769 329.591 22.9905 328.81L23.0093 328.69C22.6923 328.587 22.217 328.647 21.875 328.626L11.3476 328.567C9.74762 328.589 8.74195 329.204 8.2071 327.201L8.42085 326.802C8.69683 326.384 9.10805 326.018 9.45172 325.654L17.2149 316.745Z"/>
	<path fill="#8D99AE" d="M191.815 281.356L195.299 281.362C196.364 281.367 199.355 281.523 199.51 283.061C199.57 283.648 199.491 284.27 199.489 284.862L199.608 305.644C199.613 306.409 199.778 307.133 199.803 307.875L199.826 314.497C199.838 315.058 199.94 315.605 199.952 316.162L199.987 319.991C200.006 320.392 200.098 320.786 200.11 321.188L200.132 327.218C200.142 327.874 200.287 328.514 200.306 329.156L200.325 336C200.33 336.755 200.466 337.493 200.478 338.238L200.517 345.337C200.814 345.395 201.162 345.361 201.465 345.361L212.653 345.351C212.997 345.345 213.548 345.257 213.844 345.422C215.619 346.413 213.108 348.23 212.429 348.961L194.873 369.2C194.08 370.143 193.441 371.322 192.139 371.545C191.313 371.534 190.766 371.197 190.212 370.598L171.569 348.964C170.856 348.129 169.865 347.376 169.399 346.374C169.81 345.051 170.525 345.187 171.662 345.191L183.37 345.167C183.442 344.677 183.407 344.153 183.41 343.658L183.428 341.045C183.441 340.452 183.543 339.868 183.557 339.281L183.686 326.05C183.763 323.665 183.836 321.289 183.954 318.908L184.078 308.062C184.081 307.358 184.186 306.667 184.203 305.969L184.36 293.14C184.377 292.512 184.463 291.897 184.468 291.266L184.476 285.889C184.479 282.522 184.351 281.365 188.496 281.357L191.815 281.356Z"/>
	<path fill="#8D99AE" d="M238.785 323.255L226.852 337.589C224.784 339.728 221.81 334.861 220.605 333.444L205.552 315.665C204.952 314.964 203.757 313.917 203.811 312.906C203.894 311.361 205.471 311.651 206.495 311.681L208.962 311.693C212.087 311.699 215.294 311.546 218.406 311.819L218.492 303.654C218.399 289.562 208.639 276.74 194.199 275.392C178.821 273.958 166.725 286.467 165.457 301.459C165.351 302.715 165.42 304.033 165.423 305.295L165.454 311.832L178.182 311.818C178.536 311.817 178.988 311.757 179.319 311.882C179.894 312.1 180.471 313.079 180.201 313.683C179.982 314.174 179.481 314.621 179.122 315.022L161.788 335.411C161.06 336.309 160.387 337.72 159.25 338.146L159.168 338.176C157.069 338.264 156.072 336.097 154.873 334.688L137.967 315.016C137.591 314.603 137.138 314.205 136.807 313.758C136.218 312.962 136.576 311.409 137.667 311.305C138.119 311.262 138.603 311.303 139.058 311.304L150.794 311.334C150.851 311.246 150.758 308.794 150.757 308.501C150.744 305.601 150.575 302.594 150.927 299.719C153.33 280.089 168.233 264.769 188.312 262.953C210.961 260.904 231.227 278.158 233.071 300.995C233.192 302.497 233.131 304.047 233.131 305.555L233.123 308.816C233.116 309.603 233.123 310.409 233.009 311.19L232.991 311.31C233.308 311.413 233.783 311.353 234.125 311.374L244.652 311.433C246.252 311.411 247.258 310.796 247.793 312.799L247.579 313.199C247.303 313.616 246.892 313.982 246.548 314.346L238.785 323.255Z"/>
	<path fill="#2B2D42" d="M320.185 358.644L316.701 358.638C315.636 358.633 312.645 358.477 312.49 356.939C312.43 356.352 312.509 355.73 312.511 355.138L312.392 334.356C312.387 333.591 312.222 332.867 312.197 332.125L312.175 325.503C312.162 324.942 312.06 324.395 312.048 323.838L312.013 320.009C311.994 319.608 311.902 319.214 311.89 318.812L311.868 312.782C311.858 312.126 311.713 311.486 311.694 310.844L311.675 304C311.67 303.245 311.534 302.507 311.522 301.762L311.483 294.663C311.186 294.605 310.838 294.639 310.535 294.639L299.347 294.649C299.003 294.655 298.452 294.743 298.156 294.578C296.381 293.587 298.892 291.77 299.571 291.039L317.127 270.8C317.92 269.857 318.559 268.678 319.861 268.455C320.687 268.466 321.235 268.803 321.788 269.401L340.432 291.036C341.144 291.871 342.135 292.624 342.601 293.626C342.19 294.949 341.475 294.813 340.338 294.809L328.63 294.833C328.558 295.323 328.592 295.847 328.59 296.342L328.572 298.955C328.559 299.548 328.457 300.132 328.443 300.719L328.313 313.95C328.237 316.335 328.164 318.711 328.046 321.092L327.922 331.938C327.919 332.642 327.813 333.333 327.797 334.031L327.64 346.86C327.623 347.488 327.537 348.103 327.533 348.734L327.524 354.111C327.521 357.478 327.649 358.635 323.504 358.643L320.185 358.644Z"/>
	<path fill="#2B2D42" d="M273.215 316.745L285.148 302.411C287.216 300.272 290.19 305.139 291.395 306.556L306.449 324.335C307.048 325.036 308.243 326.083 308.189 327.094C308.106 328.639 306.529 328.349 305.505 328.319L303.038 328.307C299.913 328.302 296.706 328.454 293.594 328.181L293.509 336.346C293.601 350.438 303.361 363.26 317.801 364.608C333.179 366.042 345.275 353.533 346.543 338.541C346.649 337.285 346.58 335.967 346.577 334.705L346.546 328.168L333.818 328.182C333.464 328.183 333.012 328.243 332.681 328.118C332.106 327.9 331.529 326.921 331.799 326.317C332.018 325.826 332.519 325.379 332.878 324.978L350.212 304.589C350.94 303.691 351.613 302.28 352.75 301.854L352.832 301.824C354.931 301.736 355.928 303.903 357.127 305.312L374.033 324.984C374.409 325.397 374.862 325.795 375.193 326.242C375.782 327.038 375.424 328.591 374.332 328.695C373.881 328.738 373.397 328.697 372.942 328.696L361.206 328.666C361.148 328.754 361.242 331.206 361.243 331.499C361.256 334.399 361.425 337.406 361.073 340.281C358.67 359.91 343.767 375.231 323.688 377.047C301.039 379.096 280.773 361.842 278.929 339.005C278.808 337.503 278.869 335.953 278.869 334.445L278.877 331.184C278.884 330.397 278.877 329.591 278.99 328.81L279.009 328.69C278.692 328.587 278.217 328.647 277.875 328.626L267.348 328.567C265.748 328.589 264.742 329.204 264.207 327.201L264.421 326.802C264.697 326.384 265.108 326.018 265.452 325.654L273.215 316.745Z"/>
	<path fill="#8D99AE" d="M447.815 281.356L451.299 281.362C452.364 281.367 455.355 281.523 455.51 283.061C455.57 283.648 455.491 284.27 455.489 284.862L455.608 305.644C455.613 306.409 455.778 307.133 455.803 307.875L455.826 314.497C455.838 315.058 455.94 315.605 455.952 316.162L455.987 319.991C456.006 320.392 456.098 320.786 456.11 321.188L456.132 327.218C456.142 327.874 456.287 328.514 456.306 329.156L456.325 336C456.33 336.755 456.466 337.493 456.478 338.238L456.517 345.337C456.814 345.395 457.162 345.361 457.465 345.361L468.653 345.351C468.997 345.345 469.548 345.257 469.844 345.422C471.619 346.413 469.108 348.23 468.429 348.961L450.873 369.2C450.08 370.143 449.441 371.322 448.139 371.545C447.313 371.534 446.765 371.197 446.212 370.598L427.568 348.964C426.856 348.129 425.865 347.376 425.399 346.374C425.81 345.051 426.525 345.187 427.662 345.191L439.37 345.167C439.442 344.677 439.408 344.153 439.41 343.658L439.428 341.045C439.441 340.452 439.543 339.868 439.557 339.281L439.687 326.05C439.763 323.665 439.836 321.289 439.954 318.908L440.078 308.062C440.081 307.358 440.187 306.667 440.203 305.969L440.36 293.14C440.377 292.512 440.463 291.897 440.467 291.266L440.476 285.889C440.479 282.522 440.351 281.365 444.496 281.357L447.815 281.356Z"/>
	<path fill="#8D99AE" d="M494.785 323.255L482.852 337.589C480.784 339.728 477.81 334.861 476.605 333.444L461.552 315.665C460.952 314.964 459.757 313.917 459.811 312.906C459.894 311.361 461.471 311.651 462.495 311.681L464.962 311.693C468.087 311.699 471.294 311.546 474.406 311.819L474.491 303.654C474.399 289.562 464.639 276.74 450.199 275.392C434.821 273.958 422.725 286.467 421.457 301.459C421.351 302.715 421.42 304.033 421.423 305.295L421.454 311.832L434.182 311.818C434.536 311.817 434.988 311.757 435.319 311.882C435.894 312.1 436.471 313.079 436.201 313.683C435.982 314.174 435.481 314.621 435.122 315.022L417.788 335.411C417.06 336.309 416.387 337.72 415.25 338.146L415.168 338.176C413.069 338.264 412.072 336.097 410.873 334.688L393.967 315.016C393.591 314.603 393.138 314.205 392.807 313.758C392.218 312.962 392.576 311.409 393.668 311.305C394.119 311.262 394.603 311.303 395.058 311.304L406.794 311.334C406.851 311.246 406.759 308.794 406.757 308.501C406.744 305.601 406.575 302.594 406.927 299.719C409.33 280.089 424.233 264.769 444.312 262.953C466.961 260.904 487.227 278.158 489.071 300.995C489.192 302.497 489.131 304.047 489.131 305.555L489.123 308.816C489.116 309.603 489.123 310.409 489.009 311.19L488.991 311.31C489.308 311.413 489.783 311.353 490.125 311.374L500.652 311.433C502.252 311.411 503.258 310.796 503.793 312.799L503.579 313.199C503.303 313.616 502.892 313.982 502.548 314.346L494.785 323.255Z"/>
	<path fill="#8D99AE" d="M-0.1847 409.356L3.2987 409.362C4.3642 409.367 7.3547 409.523 7.5102 411.061C7.5695 411.648 7.4907 412.27 7.489 412.862L7.6078 433.644C7.6132 434.409 7.7782 435.133 7.803 435.875L7.8255 442.497C7.838 443.058 7.9398 443.605 7.952 444.162L7.9873 447.991C8.0062 448.392 8.0983 448.786 8.1097 449.188L8.1315 455.218C8.142 455.874 8.2873 456.514 8.3058 457.156L8.3252 464C8.3297 464.755 8.4665 465.493 8.4778 466.238L8.5168 473.337C8.8143 473.395 9.162 473.361 9.465 473.361L20.6532 473.351C20.997 473.345 21.5475 473.257 21.8438 473.422C23.6192 474.413 21.1085 476.23 20.4288 476.961L2.8725 497.2C2.0803 498.143 1.441 499.322 0.1393 499.545C-0.6868 499.534 -1.2345 499.197 -1.7878 498.598L-20.4315 476.964C-21.144 476.129 -22.135 475.376 -22.6008 474.374C-22.1898 473.051 -21.4753 473.187 -20.338 473.191L-8.6295 473.167C-8.5583 472.677 -8.5925 472.153 -8.5902 471.658L-8.5725 469.045C-8.5593 468.452 -8.4573 467.868 -8.4433 467.281L-8.3135 454.05C-8.237 451.665 -8.1637 449.289 -8.0457 446.908L-7.9223 436.062C-7.919 435.358 -7.8135 434.667 -7.797 433.969L-7.6398 421.14C-7.6232 420.512 -7.5367 419.897 -7.5325 419.266L-7.5245 413.889C-7.5208 410.522 -7.6488 409.365 -3.5042 409.357L-0.1847 409.356Z"/>
	<path fill="#8D99AE" d="M46.785 451.255L34.8517 465.589C32.7845 467.728 29.8105 462.861 28.6047 461.444L13.5515 443.665C12.9522 442.964 11.7565 441.917 11.8107 440.906C11.894 439.361 13.4708 439.651 14.4952 439.681L16.9617 439.693C20.0867 439.699 23.2945 439.546 26.4057 439.819L26.4915 431.654C26.3992 417.562 16.6395 404.74 2.1993 403.392C-13.1787 401.958 -25.275 414.467 -26.543 429.459C-26.6495 430.715 -26.58 432.033 -26.5775 433.295L-26.5463 439.832L-13.8178 439.818C-13.4643 439.817 -13.012 439.757 -12.6813 439.882C-12.1058 440.1 -11.5288 441.079 -11.7987 441.683C-12.0178 442.174 -12.5192 442.621 -12.8778 443.022L-30.2115 463.411C-30.9398 464.309 -31.6132 465.72 -32.7495 466.146L-32.8317 466.176C-34.9308 466.264 -35.928 464.097 -37.1268 462.688L-54.033 443.016C-54.4093 442.603 -54.8618 442.205 -55.193 441.758C-55.782 440.962 -55.424 439.409 -54.3325 439.305C-53.8812 439.262 -53.3967 439.303 -52.9417 439.304L-41.206 439.334C-41.1485 439.246 -41.2415 436.794 -41.243 436.501C-41.2562 433.601 -41.425 430.594 -41.0733 427.719C-38.6702 408.089 -23.7668 392.769 -3.6875 390.953C18.9613 388.904 39.227 406.158 41.071 428.995C41.192 430.497 41.131 432.047 41.131 433.555L41.123 436.816C41.116 437.603 41.123 438.409 41.009 439.19L40.991 439.31C41.308 439.413 41.783 439.353 42.125 439.374L52.652 439.433C54.252 439.411 55.258 438.796 55.793 440.799L55.579 441.199C55.303 441.616 54.892 441.982 54.548 442.346L46.785 451.255Z"/>
	<path fill="#2B2D42" d="M128.185 486.644L124.701 486.638C123.636 486.633 120.645 486.477 120.49 484.939C120.43 484.352 120.509 483.73 120.511 483.138L120.392 462.356C120.387 461.591 120.222 460.867 120.197 460.125L120.174 453.503C120.162 452.942 120.06 452.395 120.048 451.838L120.013 448.009C119.994 447.608 119.902 447.214 119.89 446.812L119.868 440.782C119.858 440.126 119.713 439.486 119.694 438.844L119.675 432C119.67 431.245 119.534 430.507 119.522 429.762L119.483 422.663C119.186 422.605 118.838 422.639 118.535 422.639L107.347 422.649C107.003 422.655 106.453 422.743 106.156 422.578C104.381 421.587 106.892 419.77 107.571 419.039L125.127 398.8C125.92 397.857 126.559 396.678 127.861 396.455C128.687 396.466 129.234 396.803 129.788 397.401L148.431 419.036C149.144 419.871 150.135 420.624 150.601 421.626C150.19 422.949 149.475 422.813 148.338 422.809L136.63 422.833C136.558 423.323 136.593 423.847 136.59 424.342L136.572 426.955C136.559 427.548 136.457 428.132 136.443 428.719L136.314 441.95C136.237 444.335 136.164 446.711 136.046 449.092L135.922 459.938C135.919 460.642 135.814 461.333 135.797 462.031L135.64 474.86C135.623 475.488 135.537 476.103 135.532 476.734L135.524 482.111C135.521 485.478 135.649 486.635 131.504 486.643L128.185 486.644Z"/>
	<path fill="#2B2D42" d="M81.2149 444.745L93.1483 430.411C95.2155 428.272 98.1895 433.139 99.3952 434.556L114.448 452.335C115.048 453.036 116.243 454.083 116.189 455.094C116.106 456.639 114.529 456.349 113.505 456.319L111.038 456.307C107.913 456.302 104.706 456.454 101.594 456.181L101.508 464.346C101.601 478.438 111.361 491.26 125.801 492.608C141.179 494.042 153.275 481.533 154.543 466.541C154.649 465.285 154.58 463.967 154.577 462.705L154.546 456.168L141.818 456.182C141.464 456.183 141.012 456.243 140.681 456.118C140.106 455.9 139.529 454.921 139.799 454.317C140.018 453.826 140.519 453.379 140.878 452.978L158.212 432.589C158.94 431.691 159.613 430.28 160.75 429.854L160.832 429.824C162.931 429.736 163.928 431.903 165.127 433.312L182.033 452.984C182.409 453.397 182.862 453.795 183.193 454.242C183.782 455.038 183.424 456.591 182.332 456.695C181.881 456.738 181.397 456.697 180.942 456.696L169.206 456.666C169.148 456.754 169.242 459.206 169.243 459.499C169.256 462.399 169.425 465.406 169.073 468.281C166.67 487.91 151.767 503.231 131.688 505.047C109.039 507.096 88.7731 489.842 86.9293 467.005C86.8081 465.503 86.8693 463.953 86.8692 462.445L86.8766 459.184C86.8836 458.397 86.8769 457.591 86.9905 456.81L87.0093 456.69C86.6923 456.587 86.217 456.647 85.875 456.626L75.3476 456.567C73.7476 456.589 72.742 457.204 72.2071 455.201L72.4209 454.802C72.6968 454.384 73.1081 454.018 73.4517 453.654L81.2149 444.745Z"/>
	<path fill="#8D99AE" d="M255.815 409.356L259.299 409.362C260.364 409.367 263.355 409.523 263.51 411.061C263.57 411.648 263.491 412.27 263.489 412.862L263.608 433.644C263.613 434.409 263.778 435.133 263.803 435.875L263.826 442.497C263.838 443.058 263.94 443.605 263.952 444.162L263.987 447.991C264.006 448.392 264.098 448.786 264.11 449.188L264.132 455.218C264.142 455.874 264.287 456.514 264.306 457.156L264.325 464C264.33 464.755 264.466 465.493 264.478 466.238L264.517 473.337C264.814 473.395 265.162 473.361 265.465 473.361L276.653 473.351C276.997 473.345 277.548 473.257 277.844 473.422C279.619 474.413 277.108 476.23 276.429 476.961L258.873 497.2C258.08 498.143 257.441 499.322 256.139 499.545C255.313 499.534 254.766 499.197 254.212 498.598L235.569 476.964C234.856 476.129 233.865 475.376 233.399 474.374C233.81 473.051 234.525 473.187 235.662 473.191L247.37 473.167C247.442 472.677 247.407 472.153 247.41 471.658L247.428 469.045C247.441 468.452 247.543 467.868 247.557 467.281L247.686 454.05C247.763 451.665 247.836 449.289 247.954 446.908L248.078 436.062C248.081 435.358 248.186 434.667 248.203 433.969L248.36 421.14C248.377 420.512 248.463 419.897 248.468 419.266L248.476 413.889C248.479 410.522 248.351 409.365 252.496 409.357L255.815 409.356Z"/>
	<path fill="#8D99AE" d="M302.785 451.255L290.852 465.589C288.784 467.728 285.81 462.861 284.605 461.444L269.552 443.665C268.952 442.964 267.757 441.917 267.811 440.906C267.894 439.361 269.471 439.651 270.495 439.681L272.962 439.693C276.087 439.699 279.294 439.546 282.406 439.819L282.491 431.654C282.399 417.562 272.639 404.74 258.199 403.392C242.821 401.958 230.725 414.467 229.457 429.459C229.351 430.715 229.42 432.033 229.423 433.295L229.454 439.832L242.182 439.818C242.536 439.817 242.988 439.757 243.319 439.882C243.894 440.1 244.471 441.079 244.201 441.683C243.982 442.174 243.481 442.621 243.122 443.022L225.788 463.411C225.06 464.309 224.387 465.72 223.25 466.146L223.168 466.176C221.069 466.264 220.072 464.097 218.873 462.688L201.967 443.016C201.591 442.603 201.138 442.205 200.807 441.758C200.218 440.962 200.576 439.409 201.667 439.305C202.119 439.262 202.603 439.303 203.058 439.304L214.794 439.334C214.851 439.246 214.758 436.794 214.757 436.501C214.744 433.601 214.575 430.594 214.927 427.719C217.33 408.089 232.233 392.769 252.312 390.953C274.961 388.904 295.227 406.158 297.071 428.995C297.192 430.497 297.131 432.047 297.131 433.555L297.123 436.816C297.116 437.603 297.123 438.409 297.009 439.19L296.991 439.31C297.308 439.413 297.783 439.353 298.125 439.374L308.652 439.433C310.252 439.411 311.258 438.796 311.793 440.799L311.579 441.199C311.303 441.616 310.892 441.982 310.548 442.346L302.785 451.255Z"/>
	<path fill="#2B2D42" d="M384.185 486.644L380.701 486.638C379.636 486.633 376.645 486.477 376.49 484.939C376.43 484.352 376.509 483.73 376.511 483.138L376.392 462.356C376.387 461.591 376.222 460.867 376.197 460.125L376.175 453.503C376.162 452.942 376.06 452.395 376.048 451.838L376.013 448.009C375.994 447.608 375.902 447.214 375.89 446.812L375.868 440.782C375.858 440.126 375.713 439.486 375.694 438.844L375.675 432C375.67 431.245 375.534 430.507 375.522 429.762L375.483 422.663C375.186 422.605 374.838 422.639 374.535 422.639L363.347 422.649C363.003 422.655 362.452 422.743 362.156 422.578C360.381 421.587 362.892 419.77 363.571 419.039L381.127 398.8C381.92 397.857 382.559 396.678 383.861 396.455C384.687 396.466 385.235 396.803 385.788 397.401L404.432 419.036C405.144 419.871 406.135 420.624 406.601 421.626C406.19 422.949 405.475 422.813 404.338 422.809L392.63 422.833C392.558 423.323 392.592 423.847 392.59 424.342L392.572 426.955C392.559 427.548 392.457 428.132 392.443 428.719L392.313 441.95C392.237 444.335 392.164 446.711 392.046 449.092L391.922 459.938C391.919 460.642 391.813 461.333 391.797 462.031L391.64 474.86C391.623 475.488 391.537 476.103 391.533 476.734L391.524 482.111C391.521 485.478 391.649 486.635 387.504 486.643L384.185 486.644Z"/>
	<path fill="#2B2D42" d="M337.215 444.745L349.148 430.411C351.216 428.272 354.19 433.139 355.395 434.556L370.449 452.335C371.048 453.036 372.243 454.083 372.189 455.094C372.106 456.639 370.529 456.349 369.505 456.319L367.038 456.307C363.913 456.302 360.706 456.454 357.594 456.181L357.509 464.346C357.601 478.438 367.361 491.26 381.801 492.608C397.179 494.042 409.275 481.533 410.543 466.541C410.649 465.285 410.58 463.967 410.577 462.705L410.546 456.168L397.818 456.182C397.464 456.183 397.012 456.243 396.681 456.118C396.106 455.9 395.529 454.921 395.799 454.317C396.018 453.826 396.519 453.379 396.878 452.978L414.212 432.589C414.94 431.691 415.613 430.28 416.75 429.854L416.832 429.824C418.931 429.736 419.928 431.903 421.127 433.312L438.033 452.984C438.409 453.397 438.862 453.795 439.193 454.242C439.782 455.038 439.424 456.591 438.332 456.695C437.881 456.738 437.397 456.697 436.942 456.696L425.206 456.666C425.148 456.754 425.242 459.206 425.243 459.499C425.256 462.399 425.425 465.406 425.073 468.281C422.67 487.91 407.767 503.231 387.688 505.047C365.039 507.096 344.773 489.842 342.929 467.005C342.808 465.503 342.869 463.953 342.869 462.445L342.877 459.184C342.884 458.397 342.877 457.591 342.99 456.81L343.009 456.69C342.692 456.587 342.217 456.647 341.875 456.626L331.348 456.567C329.748 456.589 328.742 457.204 328.207 455.201L328.421 454.802C328.697 454.384 329.108 454.018 329.452 453.654L337.215 444.745Z"/>
	<path fill="#8D99AE" d="M511.815 409.356L515.299 409.362C516.364 409.367 519.355 409.523 519.51 411.061C519.57 411.648 519.491 412.27 519.489 412.862L519.608 433.644C519.613 434.409 519.778 435.133 519.803 435.875L519.826 442.497C519.838 443.058 519.94 443.605 519.952 444.162L519.987 447.991C520.006 448.392 520.098 448.786 520.11 449.188L520.131 455.218C520.142 455.874 520.287 456.514 520.306 457.156L520.325 464C520.33 464.755 520.466 465.493 520.478 466.238L520.517 473.337C520.814 473.395 521.162 473.361 521.465 473.361L532.653 473.351C532.997 473.345 533.548 473.257 533.844 473.422C535.619 474.413 533.109 476.23 532.429 476.961L514.872 497.2C514.08 498.143 513.441 499.322 512.139 499.545C511.313 499.534 510.765 499.197 510.212 498.598L491.568 476.964C490.856 476.129 489.865 475.376 489.399 474.374C489.81 473.051 490.525 473.187 491.662 473.191L503.37 473.167C503.442 472.677 503.408 472.153 503.41 471.658L503.428 469.045C503.441 468.452 503.543 467.868 503.557 467.281L503.687 454.05C503.763 451.665 503.836 449.289 503.954 446.908L504.078 436.062C504.081 435.358 504.187 434.667 504.203 433.969L504.36 421.14C504.377 420.512 504.463 419.897 504.467 419.266L504.476 413.889C504.479 410.522 504.351 409.365 508.496 409.357L511.815 409.356Z"/>
	<path fill="#8D99AE" d="M558.785 451.255L546.852 465.589C544.784 467.728 541.811 462.861 540.605 461.444L525.552 443.665C524.952 442.964 523.756 441.917 523.811 440.906C523.894 439.361 525.471 439.651 526.495 439.681L528.962 439.693C532.087 439.699 535.294 439.546 538.406 439.819L538.491 431.654C538.399 417.562 528.639 404.74 514.199 403.392C498.821 401.958 486.725 414.467 485.457 429.459C485.351 430.715 485.42 432.033 485.423 433.295L485.454 439.832L498.182 439.818C498.536 439.817 498.988 439.757 499.319 439.882C499.894 440.1 500.471 441.079 500.201 441.683C499.982 442.174 499.481 442.621 499.122 443.022L481.788 463.411C481.06 464.309 480.387 465.72 479.25 466.146L479.168 466.176C477.069 466.264 476.072 464.097 474.873 462.688L457.967 443.016C457.591 442.603 457.138 442.205 456.807 441.758C456.218 440.962 456.576 439.409 457.668 439.305C458.119 439.262 458.603 439.303 459.058 439.304L470.794 439.334C470.851 439.246 470.759 436.794 470.757 436.501C470.744 433.601 470.575 430.594 470.927 427.719C473.33 408.089 488.233 392.769 508.312 390.953C530.961 388.904 551.227 406.158 553.071 428.995C553.192 430.497 553.131 432.047 553.131 433.555L553.123 436.816C553.116 437.603 553.123 438.409 553.009 439.19L552.991 439.31C553.308 439.413 553.783 439.353 554.125 439.374L564.652 439.433C566.252 439.411 567.258 438.796 567.793 440.799L567.579 441.199C567.303 441.616 566.892 441.982 566.548 442.346L558.785 451.255Z"/>
</svg>
