<?xml version="1.0" encoding="UTF-8" standalone="no"?>
<svg
   width="512"
   height="512"
   version="1.1"
   id="svg6"
   sodipodi:docname="logo-neutraal-kieslab-lichtblauw.svg"
   inkscape:version="1.2.2 (732a01da63, 2022-12-09)"
   xmlns:inkscape="http://www.inkscape.org/namespaces/inkscape"
   xmlns:sodipodi="http://sodipodi.sourceforge.net/DTD/sodipodi-0.dtd"
   xmlns="http://www.w3.org/2000/svg"
   xmlns:svg="http://www.w3.org/2000/svg">
  <defs
     id="defs10" />
  <sodipodi:namedview
     id="namedview8"
     pagecolor="#ffffff"
     bordercolor="#000000"
     borderopacity="0.25"
     inkscape:showpageshadow="2"
     inkscape:pageopacity="0.0"
     inkscape:pagecheckerboard="0"
     inkscape:deskcolor="#d1d1d1"
     showgrid="false"
     inkscape:zoom="2.2483786"
     inkscape:cx="215.04385"
     inkscape:cy="97.84829"
     inkscape:window-width="1920"
     inkscape:window-height="1001"
     inkscape:window-x="-9"
     inkscape:window-y="-9"
     inkscape:window-maximized="1"
     inkscape:current-layer="svg6" />
  <path
     d="M256.739 410.578L242.805 410.553C238.543 410.533 226.581 409.907 225.959 403.756C225.722 401.408 226.037 398.918 226.044 396.552L225.569 313.422C225.547 310.363 224.887 307.467 224.788 304.5L224.698 278.013C224.648 275.77 224.241 273.58 224.192 271.351L224.051 256.037C223.975 254.431 223.607 252.856 223.561 251.25L223.474 227.128C223.432 224.505 222.851 221.946 222.777 219.375L222.699 192C222.681 188.98 222.134 186.028 222.089 183.049L221.933 154.654C220.743 154.421 219.352 154.557 218.14 154.555L173.387 154.598C172.012 154.62 169.81 154.974 168.625 154.313C161.523 150.347 171.566 143.08 174.285 140.157L244.51 59.1985C247.679 55.4284 250.236 50.7139 255.443 49.8209C258.747 49.8638 260.938 51.2101 263.151 53.6061L337.726 140.143C340.576 143.483 344.54 146.497 346.403 150.505C344.759 155.795 341.901 155.254 337.352 155.235L290.518 155.332C290.233 157.293 290.37 159.388 290.361 161.369L290.29 171.821C290.237 174.19 289.829 176.527 289.773 178.875L289.254 231.8C288.948 241.339 288.655 250.845 288.183 260.368L287.689 303.75C287.676 306.569 287.254 309.332 287.188 312.125L286.559 363.441C286.493 365.952 286.147 368.411 286.13 370.935L286.098 392.443C286.083 405.913 286.595 410.542 270.017 410.573L256.739 410.578Z"
     id="path2"
     style="stroke:#edf2f4;stroke-opacity:1;fill:#edf2f4;fill-opacity:1" />
  <path
     d="M68.8596 242.981L116.593 185.642C124.862 177.088 136.758 196.556 141.581 202.223L201.794 273.34C204.191 276.142 208.974 280.333 208.757 284.375C208.424 290.555 202.117 289.397 198.019 289.277L188.153 289.228C175.653 289.206 162.822 289.815 150.377 288.723L150.034 321.382C150.403 377.751 189.442 429.041 247.203 434.43C308.715 440.169 357.1 390.13 362.172 330.166C362.598 325.139 362.32 319.869 362.31 314.819L362.185 288.674L311.271 288.726C309.857 288.731 308.048 288.97 306.725 288.47C304.423 287.6 302.115 283.682 303.195 281.266C304.071 279.304 306.077 277.516 307.511 275.914L376.846 194.357C379.759 190.763 382.453 185.121 386.998 183.415L387.327 183.295C395.723 182.944 399.712 191.612 404.507 197.249L472.132 275.936C473.637 277.588 475.447 279.181 476.772 280.969C479.128 284.15 477.696 290.365 473.33 290.782C471.525 290.954 469.587 290.789 467.767 290.785L420.824 290.662C420.594 291.014 420.966 300.822 420.972 301.997C421.025 313.595 421.7 325.624 420.293 337.122C410.681 415.642 351.067 476.923 270.75 484.188C180.155 492.383 99.0923 423.369 91.7173 332.022C91.2322 326.013 91.4774 319.813 91.4767 313.781L91.5062 300.736C91.5345 297.587 91.5077 294.364 91.9622 291.241L92.0372 290.758C90.7693 290.349 88.8679 290.587 87.5 290.505L45.3905 290.266C38.9905 290.355 34.9678 292.817 32.8284 284.805L33.6834 283.206C34.7873 281.536 36.4322 280.071 37.8069 278.618L68.8596 242.981Z"
     id="path4"
     style="stroke:#edf2f4;stroke-opacity:1;fill:#edf2f4;fill-opacity:1" />
  <path
     style="fill:#edf2f4;stroke-width:0.628993;stroke:#edf2f4;stroke-opacity:1;fill-opacity:1"
     d="m 236.75415,409.81767 c -4.69072,-0.72741 -7.45232,-1.77027 -8.8697,-3.34944 -1.22312,-1.36275 -1.27195,-2.89204 -1.99246,-62.40926 -0.40624,-33.55676 -1.0137,-70.06978 -1.34991,-81.14005 -0.33621,-11.07027 -0.90579,-34.13858 -1.26572,-51.2629 -0.35993,-17.12432 -0.82894,-37.00835 -1.04223,-44.18673 l -0.3878,-13.0516 h -26.1837 c -29.02668,0 -28.97958,0.006 -28.97958,-3.88185 0,-1.53427 0.93397,-2.89546 4.61503,-6.72601 4.24809,-4.4206 71.23141,-81.528313 76.73662,-88.335204 1.3272,-1.641002 3.56904,-3.57336 4.98186,-4.29413 3.46269,-1.766534 6.12298,-0.952929 9.96996,3.049151 1.59064,1.654775 18.82819,21.54824 38.30566,44.207699 19.47747,22.659464 37.16417,43.038824 39.30379,45.287474 4.77466,5.01794 5.62726,6.48351 4.73825,8.14465 -1.70714,3.18981 -1.59056,3.17721 -29.40538,3.17721 H 289.9656 l -0.02,4.2457 c -0.0676,14.35646 -1.27491,80.98566 -1.82643,100.79607 -0.36117,12.97298 -0.97399,41.27764 -1.36182,62.89926 -1.52507,85.02198 -1.40567,81.28184 -2.65386,83.13095 -2.41322,3.57498 -4.54606,3.91792 -25.27304,4.06362 -10.37838,0.0729 -20.31272,-0.0911 -22.07632,-0.36461 z"
     id="path1075" />
  <path
     style="fill:#edf2f4;stroke-width:0.628993;fill-opacity:1;stroke:#edf2f4;stroke-opacity:1"
     d="M 244.99263,484.24375 C 191.58125,479.82144 144.37192,450.82221 115.97596,404.99279 107.52149,391.34778 100.63964,375.00646 96.672097,359.15479 92.472712,342.37682 92.14742,339.08706 92.14742,313.3958 v -23.11527 l -27.77701,-2.1e-4 -27.777011,-2.2e-4 -1.628395,-1.93524 c -0.895617,-1.06438 -1.628395,-2.46348 -1.628395,-3.10911 0,-0.64563 1.503363,-2.81752 3.340807,-4.82643 9.860401,-10.78055 35.684767,-40.97377 56.38402,-65.92283 12.915794,-15.56757 24.079384,-28.79371 24.807964,-29.39142 0.72859,-0.59772 2.13107,-1.09305 3.11662,-1.10074 4.21797,-0.0329 8.39763,3.40602 16.41916,13.50936 2.74662,3.45945 19.01993,22.80133 36.1629,42.98194 17.14296,20.18061 31.9474,37.85713 32.89875,39.28117 2.8037,4.19674 2.07811,8.04131 -1.69644,8.98866 -0.79818,0.20034 -13.35459,0.27152 -27.90313,0.1582 l -26.4519,-0.20604 -0.43384,5.21187 c -0.73594,8.84097 0.0878,39.32875 1.24423,46.05103 7.41207,43.08607 34.88249,77.12704 72.36033,89.66791 12.53181,4.1934 17.31481,4.91613 32.72842,4.94539 12.15719,0.0231 14.63996,-0.14911 20.44226,-1.41776 9.57184,-2.09284 15.00189,-4.02261 24.21621,-8.60614 33.94697,-16.88642 57.18153,-51.9875 61.28799,-92.58939 0.39833,-3.93844 0.49246,-13.62072 0.24308,-25.00246 l -0.40699,-18.57495 h -27.30118 c -17.52195,0 -27.73464,-0.23198 -28.5113,-0.64764 -1.53897,-0.82363 -3.30535,-4.1988 -2.9362,-5.61044 0.15522,-0.59356 16.48831,-20.12688 36.29576,-43.40738 19.80746,-23.2805 37.7673,-44.62715 39.91078,-47.43701 4.53829,-5.94921 7.29837,-8.09498 9.71501,-7.55276 3.52298,0.79045 7.26814,3.78625 11.34498,9.07501 4.30511,5.58489 66.70612,78.43931 73.13116,85.38211 3.13405,3.38658 3.65935,4.2999 3.65935,6.36234 0,1.48383 -0.50037,3.04425 -1.30364,4.06544 l -1.30364,1.65731 H 447.7971 c -21.15056,0 -27.0136,0.17035 -27.05903,0.78624 -0.0319,0.43243 -0.0159,9.13612 0.0357,19.34152 0.10309,20.40988 -0.38766,26.66904 -3.15626,40.25553 -5.31159,26.06577 -15.74472,49.20943 -31.56602,70.0224 -26.26949,34.5576 -65.91783,57.04202 -110.55275,62.69402 -5.77891,0.73176 -25.39346,1.28725 -30.50614,0.86394 z"
     id="path1077" />
  <path
     style="fill:#edf2f4;fill-opacity:1;stroke-width:0.628993;stroke:#edf2f4;stroke-opacity:1"
     d="m 236.75415,409.81767 c -4.69072,-0.72741 -7.45232,-1.77027 -8.8697,-3.34944 -1.22312,-1.36275 -1.27195,-2.89204 -1.99246,-62.40926 -0.40624,-33.55676 -1.0137,-70.06978 -1.34991,-81.14005 -0.33621,-11.07027 -0.90579,-34.13858 -1.26572,-51.2629 -0.35993,-17.12432 -0.82894,-37.00835 -1.04223,-44.18673 l -0.3878,-13.0516 h -26.1837 c -29.02668,0 -28.97958,0.006 -28.97958,-3.88185 0,-1.53427 0.93397,-2.89546 4.61503,-6.72601 4.24809,-4.4206 71.23141,-81.528313 76.73662,-88.335204 1.3272,-1.641002 3.56904,-3.57336 4.98186,-4.29413 3.46269,-1.766534 6.12298,-0.952929 9.96996,3.049151 1.59064,1.654775 18.82819,21.54824 38.30566,44.207699 19.47747,22.659464 37.16417,43.038824 39.30379,45.287474 4.77466,5.01794 5.62726,6.48351 4.73825,8.14465 -1.70714,3.18981 -1.59056,3.17721 -29.40538,3.17721 H 289.9656 l -0.02,4.2457 c -0.0676,14.35646 -1.27491,80.98566 -1.82643,100.79607 -0.36117,12.97298 -0.97399,41.27764 -1.36182,62.89926 -1.52507,85.02198 -1.40567,81.28184 -2.65386,83.13095 -2.41322,3.57498 -4.54606,3.91792 -25.27304,4.06362 -10.37838,0.0729 -20.31272,-0.0911 -22.07632,-0.36461 z"
     id="path2288" />
  <path
     style="fill:#edf2f4;fill-opacity:1;stroke-width:0.628993;stroke:#edf2f4;stroke-opacity:1"
     d="m 233.89004,408.93848 c -4.17652,-1.15743 -5.95566,-2.51476 -6.4345,-4.90895 -0.22775,-1.13872 -0.83175,-30.38247 -1.34223,-64.98609 -0.51049,-34.60362 -1.3456,-79.75695 -1.85581,-100.34074 -0.51021,-20.58378 -1.083,-44.78427 -1.27286,-53.77887 -0.18986,-8.99459 -0.50648,-19.49371 -0.70361,-23.33138 l -0.35841,-6.97756 -26.14414,-0.44279 c -14.37928,-0.24353 -26.63336,-0.70461 -27.23129,-1.02462 -1.53872,-0.82349 -1.98002,-2.36802 -1.13275,-3.96454 0.39979,-0.75332 4.87378,-6.03994 9.94219,-11.74805 10.69549,-12.04539 41.06908,-46.951197 60.20555,-69.18919 12.92932,-15.024809 15.63337,-17.611793 18.40885,-17.611793 3.71387,0 3.5021,-0.226711 48.17368,51.572853 14.16906,16.42994 29.24133,33.82458 33.49393,38.65476 8.18334,9.29478 8.64731,10.28677 5.79134,12.38224 -1.44094,1.05723 -3.73937,1.1893 -27.47418,1.57875 l -25.90169,0.425 -0.33721,4.45978 c -0.18547,2.45288 -0.49931,18.32907 -0.69744,35.28042 -0.19813,16.95136 -0.62446,41.43489 -0.94741,54.40787 -0.32294,12.97297 -0.87907,38.30565 -1.23585,56.29484 -2.18367,110.10487 -1.62101,100.67141 -6.1256,102.69999 -2.06564,0.93024 -5.13329,1.0914 -23.13812,1.21563 -15.38808,0.10618 -21.51348,-0.0665 -23.68244,-0.66756 z"
     id="path2290" />
  <path
     style="fill:#edf2f4;fill-opacity:1;stroke-width:0.628993;stroke:#edf2f4;stroke-opacity:1"
     d="m 233.35627,408.77989 c -6.05903,-1.62184 -5.90497,-1.1736 -6.41408,-18.66221 -0.24397,-8.38094 -0.74259,-37.03267 -1.10803,-63.67051 -0.6639,-48.39276 -2.81859,-148.03924 -3.53751,-163.59678 l -0.38057,-8.23562 -26.14087,-0.44273 c -14.37748,-0.2435 -26.63009,-0.70455 -27.22802,-1.02456 -1.53461,-0.82129 -1.98104,-2.36802 -1.1381,-3.94308 0.39685,-0.74151 5.7188,-7.0188 11.82655,-13.94952 12.43718,-14.11299 47.69266,-54.692356 61.87664,-71.220577 9.29837,-10.835138 12.16534,-13.402434 14.96196,-13.398045 3.63633,0.0057 3.40895,-0.238741 50.31474,54.091012 12.9923,15.04865 27.07865,31.30778 31.30299,36.13141 8.13427,9.28823 8.59582,10.2848 5.73801,12.38932 -1.44348,1.06299 -3.69669,1.19255 -27.46479,1.57927 l -25.89229,0.42128 -0.34948,6.34624 c -0.19221,3.49043 -0.5086,19.08334 -0.70307,34.65091 -0.19449,15.56757 -0.75771,45.85356 -1.25161,67.30221 -0.49391,21.44865 -1.21016,56.26339 -1.59168,77.36609 -0.38152,21.10271 -0.90467,44.25189 -1.16255,51.44263 -0.45872,12.79035 -0.50278,13.10797 -2.03049,14.63568 -2.34857,2.34857 -6.81562,2.79366 -27.61301,2.75135 -14.25527,-0.029 -19.35699,-0.25234 -22.01474,-0.96377 z"
     id="path2292" />
  <path
     style="fill:#edf2f4;fill-opacity:1;stroke:#edf2f4;stroke-width:0.628993;stroke-opacity:1"
     d="m 233.142,408.88551 c -5.48345,-1.47369 -5.65202,-1.874 -6.17332,-14.66025 -0.25045,-6.14281 -0.76406,-32.53877 -1.14137,-58.65769 -0.37731,-26.11892 -0.81278,-51.87617 -0.96772,-57.23833 -0.15494,-5.36216 -0.43887,-18.52383 -0.63096,-29.24816 -0.54346,-30.34182 -2.1924,-93.01259 -2.46765,-93.7877 -0.17311,-0.48746 -8.00163,-0.79007 -26.05797,-1.00727 -22.72281,-0.27334 -26.0025,-0.43627 -27.41524,-1.36194 -3.19684,-2.09464 -4.676,-0.0942 26.15078,-35.3661 10.24931,-11.72721 26.94953,-30.934825 37.1116,-42.683591 10.16207,-11.748766 19.43779,-22.009208 20.6127,-22.800982 3.02034,-2.035406 5.81324,-1.875176 8.50465,0.487916 1.20742,1.060128 5.00057,5.093543 8.42921,8.963144 9.36622,10.570815 72.98047,84.095663 74.78817,86.439583 1.94827,2.52618 1.56761,4.91729 -0.94422,5.93113 -1.08503,0.43795 -11.04279,0.83298 -27.18636,1.07849 l -25.4742,0.38742 -0.41544,10.37838 c -0.22849,5.70811 -0.73196,30.19164 -1.11883,54.40786 -0.38686,24.21622 -0.84002,47.42604 -1.00702,51.5774 -0.167,4.15135 -0.74101,31.18231 -1.27558,60.06879 -0.53457,28.88649 -1.17949,57.26681 -1.43316,63.06738 -0.44027,10.06731 -0.53158,10.61684 -2.00948,12.09474 -0.97567,0.97568 -2.80089,1.78581 -4.93538,2.19061 -5.0907,0.96543 -41.15929,0.75611 -44.94321,-0.26083 z"
     id="path3944" />
  <path
     style="fill:#edf2f4;fill-opacity:1;stroke:#edf2f4;stroke-width:0.628993;stroke-opacity:1"
     d="m 234.61425,482.75691 c -25.4289,-3.99411 -47.81421,-12.54927 -68.09541,-26.02452 -10.16759,-6.75556 -16.64806,-12.10368 -25.9703,-21.43244 C 117.46921,412.20451 102.7092,385.08577 95.338974,352.23587 92.989395,341.76355 92.461916,334.25558 92.461916,311.28471 V 290.2801 l -27.832923,-0.004 -27.832924,-0.004 -1.415234,-2.07885 c -0.778378,-1.14337 -1.415233,-2.53207 -1.415233,-3.08601 0,-0.55394 3.189716,-4.6406 7.088258,-9.08147 13.220248,-15.05933 29.721344,-34.40991 52.476745,-61.53868 12.477595,-14.87568 23.296625,-27.68354 24.042275,-28.46192 1.50236,-1.5683 4.84169,-1.90079 7.16626,-0.71353 2.39805,1.22478 7.25121,6.2579 15.09246,15.6521 4.18699,5.01622 18.36502,21.8575 31.50672,37.42507 13.1417,15.56756 25.92764,30.71841 28.41322,33.66854 6.22665,7.39043 7.81603,9.87904 7.81603,12.23821 0,4.19787 0.72362,4.09816 -29.74093,4.09816 h -27.4404 l -0.43217,2.30369 c -0.2377,1.26702 -0.27213,11.95203 -0.0765,23.74447 0.39388,23.74543 0.89981,28.1655 4.6501,40.62506 11.1857,37.16211 36.35431,64.09235 70.2203,75.13523 4.56161,1.48743 10.27516,3.08694 12.69678,3.55447 6.11723,1.18102 33.19923,1.19508 38.36855,0.0199 21.46224,-4.8791 39.18082,-14.87464 54.40852,-30.69338 8.68135,-9.0183 14.05706,-16.69239 19.75619,-28.20297 5.77193,-11.6576 9.00047,-21.36829 11.49808,-34.58347 1.17977,-6.24234 1.76967,-27.42134 1.1531,-41.39921 l -0.45474,-10.30919 -27.77026,-0.42646 -27.77025,-0.42646 -1.41524,-1.5929 c -0.77838,-0.8761 -1.4124,-2.21398 -1.40893,-2.97306 0.004,-0.77623 1.84976,-3.58206 4.21912,-6.4121 2.31706,-2.76757 17.9579,-21.30713 34.75742,-41.19902 16.79953,-19.89189 33.04476,-39.21748 36.10051,-42.94575 3.05576,-3.72826 6.39687,-7.21354 7.4247,-7.74505 4.27838,-2.21243 7.15803,0.0547 21.14422,16.64657 13.0638,15.49764 53.92232,63.14315 62.51819,72.90305 5.9352,6.7389 6.80251,8.00966 6.80251,9.96681 0,1.23373 -0.48384,3.06224 -1.07522,4.06335 l -1.07521,1.82019 -27.07221,0.16383 -27.0722,0.16383 -0.36868,23.90172 c -0.40053,25.96584 -0.70912,28.78432 -4.93678,45.08808 -4.20451,16.21448 -12.0782,34.68338 -20.46465,48.00283 -25.30328,40.18695 -65.14655,66.42638 -113.23726,74.57425 -11.54483,1.956 -36.20297,2.26933 -46.85995,0.59544 z"
     id="path3946" />
  <path
     style="fill:#edf2f4;fill-opacity:1;stroke:#edf2f4;stroke-width:0.628993;stroke-opacity:1"
     d="m 234.92875,409.3919 c -4.45573,-1.02103 -6.5494,-2.25226 -7.14471,-4.20161 -0.83681,-2.74009 -1.26529,-13.84899 -1.67861,-43.51953 -0.53928,-38.71333 -1.81612,-106.42202 -2.49684,-132.40295 -0.16768,-6.4 -0.48615,-19.98624 -0.7077,-30.19164 -0.22154,-10.20541 -0.5779,-24.21198 -0.7919,-31.12571 l -0.38909,-12.57043 -2.51597,-0.40879 c -1.38378,-0.22483 -10.5828,-0.44324 -20.44226,-0.48535 -19.42759,-0.083 -29.24878,-0.53646 -30.97789,-1.43038 -2.00366,-1.03585 -1.24659,-3.42461 2.49731,-7.87966 4.58728,-5.45864 28.00531,-32.48318 28.50996,-32.90067 0.20909,-0.17297 8.11194,-9.23046 17.56188,-20.12776 36.43889,-42.019868 35.94218,-41.506403 40.15647,-41.511162 1.64981,-0.0019 2.80747,0.682971 5.57815,3.29986 2.68327,2.534329 23.40217,25.958052 37.69344,42.614251 2.85223,3.324221 7.50021,8.656671 10.96512,12.579851 1.98597,2.24865 4.70364,5.38715 6.03926,6.97444 1.33562,1.5873 7.52616,8.80499 13.75677,16.03931 15.07482,17.5033 14.77481,17.12059 14.77481,18.84802 0,0.93117 -0.62573,1.91972 -1.63282,2.57959 -1.44155,0.94454 -4.61548,1.11665 -27.09401,1.46918 -21.14134,0.33158 -25.55824,0.55271 -26.03322,1.30336 -0.31462,0.49722 -0.59803,5.85735 -0.62979,11.91141 -0.0318,6.05405 -0.13932,11.43194 -0.23901,11.95086 -0.0997,0.51892 -0.36641,14.52973 -0.59271,31.13513 -0.2263,16.60541 -0.54393,35.00344 -0.70584,40.88452 -0.16191,5.88109 -0.44518,18.33514 -0.6295,27.67568 -0.18431,9.34054 -0.46508,21.37002 -0.62393,26.73219 -0.15886,5.36216 -0.4404,18.9484 -0.62564,30.19164 -0.75079,45.56788 -1.41745,65.58916 -2.27574,68.34542 -0.42067,1.35094 -1.36393,2.35735 -2.94758,3.14497 -2.11092,1.04984 -4.3308,1.1679 -23.71468,1.26124 -11.76216,0.0567 -21.95184,-0.0267 -22.64373,-0.18528 z"
     id="path4755" />
  <path
     style="fill:#edf2f4;fill-opacity:1;stroke:#edf2f4;stroke-width:0.628993;stroke-opacity:1"
     d="m 239.4767,482.95985 c -18.63706,-2.05881 -39.60618,-8.41729 -56.84476,-17.23707 -24.84704,-12.7125 -47.30089,-32.95865 -63.42845,-57.19207 -12.48402,-18.75861 -23.246438,-47.53557 -25.405871,-67.9312 -0.641963,-6.06328 -1.240236,-25.84876 -1.30807,-43.25918 l -0.02763,-7.0921 -20.285012,0.0323 c -11.156757,0.0177 -23.614971,0.0249 -27.68492,0.0159 l -7.399909,-0.0163 -1.246389,-2.04423 C 33.662238,284.65478 31.271851,287.9814 60.408295,254.05304 69.589609,243.36169 86.035773,224 96.95532,211.02703 c 10.91955,-12.97298 20.44393,-24.11086 21.16529,-24.75086 1.74429,-1.54757 5.28203,-1.48588 7.55374,0.13172 1.00054,0.71245 3.48988,3.08838 5.53187,5.27983 3.3441,3.5889 61.316,72.11074 70.29288,83.08505 5.71148,6.98233 7.01386,10.84653 4.16885,12.36913 -0.61469,0.32897 -13.4313,0.78881 -28.6112,1.02653 l -27.49773,0.4306 0.3142,24.585 c 0.36074,28.22711 0.62503,30.39923 5.49688,45.1781 12.28913,37.27935 37.23127,62.34532 72.8143,73.17579 9.44793,2.87568 14.78636,3.38431 32.53304,3.09968 13.24341,-0.21241 14.97135,-0.37097 20.43271,-1.87497 41.09258,-11.31647 71.1671,-45.29094 80.33184,-90.74896 0.94132,-4.66903 1.11111,-9.09156 1.12082,-29.19379 0.006,-13.03015 -0.1785,-23.88152 -0.41065,-24.11415 -0.23216,-0.23263 -12.54469,-0.56389 -27.36118,-0.73612 -29.1034,-0.33831 -29.31179,-0.36408 -30.15614,-3.72824 -0.55997,-2.23111 0.002,-2.96749 23.71753,-31.07799 11.2337,-13.31553 27.80379,-32.98451 36.82241,-43.70883 9.01863,-10.72433 17.6049,-20.70172 19.08059,-22.17199 3.33409,-3.32182 5.18833,-3.44847 8.93337,-0.61021 1.49717,1.13466 11.31439,12.10272 21.81606,24.37347 10.50167,12.27074 27.48447,32.03838 37.73956,43.92807 10.25509,11.88969 19.70403,22.92851 20.99765,24.53071 2.61024,3.23288 3.02137,5.79553 1.42504,8.88249 l -0.94037,1.81847 -26.68357,0.19452 c -14.67596,0.10698 -26.82023,0.33604 -26.98727,0.50901 -0.16703,0.17297 -0.48407,9.51351 -0.70454,20.75676 -0.50102,25.55109 -1.09513,31.75984 -4.24324,44.34398 -8.11351,32.43266 -22.39511,58.17598 -44.49977,80.21313 -22.99415,22.92393 -51.11828,37.79179 -84.32765,44.57992 -12.5343,2.56205 -34.58344,3.56661 -47.34394,2.15697 z"
     id="path4757" />
  <path
     style="fill:#edf2f4;fill-opacity:1;stroke:#edf2f4;stroke-width:0.628993;stroke-opacity:1"
     d=""
     id="path4759" />
  <path
     style="fill:#edf2f4;fill-opacity:1;stroke:#edf2f4;stroke-width:0.444765;stroke-opacity:1"
     d=""
     id="path4761" />
  <path
     style="fill:#edf2f4;fill-opacity:1;stroke:#edf2f4;stroke-width:0.445;stroke-opacity:1;stroke-dasharray:none"
     d=""
     id="path4763" />
  <path
     style="fill:#edf2f4;fill-opacity:1;stroke:#edf2f4;stroke-width:0.19792;stroke-dasharray:none;stroke-opacity:1"
     d="m 244.62072,483.63923 c -5.94187,-0.39515 -7.8608,-0.58303 -10.45197,-1.02333 -0.73386,-0.1247 -1.93473,-0.32111 -2.66859,-0.43646 -0.73386,-0.11536 -1.88523,-0.31997 -2.55859,-0.45469 -2.90679,-0.58158 -3.50177,-0.70035 -4.44765,-0.88787 -0.54974,-0.10899 -1.49989,-0.32387 -2.11144,-0.47751 -0.61156,-0.15364 -1.7998,-0.37613 -2.64055,-0.4944 -0.84074,-0.11828 -1.75981,-0.40692 -2.04236,-0.64142 -0.28256,-0.2345 -0.63211,-0.30798 -0.7768,-0.1633 -0.14468,0.14468 -0.52655,0.0985 -0.8486,-0.10254 -0.32205,-0.20108 -0.83573,-0.42127 -1.14151,-0.4893 -1.0436,-0.2322 -2.11232,-0.50029 -2.33501,-0.58574 -0.12231,-0.0469 -0.42253,-0.13184 -0.66715,-0.18867 -0.24462,-0.0568 -0.59487,-0.15884 -0.77834,-0.22668 -0.18346,-0.0678 -0.53372,-0.17337 -0.77834,-0.23453 -0.24462,-0.0611 -0.54483,-0.16122 -0.66714,-0.22238 -0.12231,-0.0611 -0.42253,-0.16122 -0.66715,-0.22238 -0.24462,-0.0612 -0.54484,-0.16123 -0.66715,-0.22238 -0.12231,-0.0612 -0.42253,-0.16123 -0.66715,-0.22238 -0.24462,-0.0612 -0.54483,-0.16123 -0.66714,-0.22239 -0.12231,-0.0611 -0.42253,-0.16122 -0.66715,-0.22238 -0.24462,-0.0612 -0.54484,-0.16123 -0.66715,-0.22238 -0.12231,-0.0612 -0.42253,-0.16123 -0.66715,-0.22238 -0.24462,-0.0612 -0.54483,-0.16123 -0.66714,-0.22239 -0.12231,-0.0611 -0.42253,-0.16122 -0.66715,-0.22238 -0.24462,-0.0611 -0.54484,-0.16123 -0.66715,-0.22238 -0.12231,-0.0612 -0.42253,-0.16123 -0.66715,-0.22238 -0.24462,-0.0612 -0.54483,-0.16123 -0.66714,-0.22239 -0.12231,-0.0611 -0.37249,-0.1433 -0.55596,-0.18255 -0.18347,-0.0392 -0.7839,-0.32148 -1.33429,-0.6272 -0.5504,-0.30571 -1.00073,-0.42422 -1.00073,-0.26335 0,0.16087 -0.26859,0.0696 -0.59687,-0.20287 -0.32829,-0.27245 -0.72857,-0.36368 -0.88953,-0.20272 -0.16096,0.16096 -0.29266,0.0258 -0.29266,-0.30037 0,-0.32616 -0.13169,-0.46133 -0.29265,-0.30036 -0.16096,0.16095 -0.56125,0.0697 -0.88953,-0.20272 -0.32828,-0.27245 -0.59688,-0.36565 -0.59688,-0.2071 0,0.15854 -0.59833,-0.0212 -1.32963,-0.39932 -0.7313,-0.37817 -1.43548,-0.67725 -1.56486,-0.66461 -0.12937,0.0126 -1.09916,-0.48334 -2.1551,-1.10216 -1.05593,-0.61882 -2.05297,-0.99203 -2.21565,-0.82936 -0.16266,0.16268 -0.29576,0.0289 -0.29576,-0.29725 0,-0.32616 -0.12393,-0.46909 -0.2754,-0.31762 -0.31163,0.31163 -6.23241,-2.56854 -7.13442,-3.47054 -0.3233,-0.3233 -1.29015,-0.81962 -2.14856,-1.10291 -0.85841,-0.2833 -1.56074,-0.67544 -1.56074,-0.87141 0,-0.19597 -0.65047,-0.62336 -1.44549,-0.94975 -0.79502,-0.32639 -1.82605,-0.94419 -2.29118,-1.37288 -0.46513,-0.42868 -1.01553,-0.67447 -1.2231,-0.54618 -0.20758,0.12829 -0.37741,0.0213 -0.37741,-0.23776 0,-0.25906 -0.30022,-0.47102 -0.66715,-0.47102 -0.36693,0 -0.66715,-0.19633 -0.66715,-0.43629 0,-0.23996 -0.50036,-0.56187 -1.11191,-0.71536 -0.61155,-0.15349 -1.11191,-0.45752 -1.11191,-0.67562 0,-0.2181 -0.30022,-0.39655 -0.66715,-0.39655 -0.36693,0 -0.66715,-0.20014 -0.66715,-0.44477 0,-0.24462 -0.26533,-0.44476 -0.58962,-0.44476 -0.32428,0 -1.05968,-0.50036 -1.6342,-1.11191 -0.57453,-0.61155 -1.30992,-1.11192 -1.63421,-1.11192 -0.32429,0 -0.58962,-0.20014 -0.58962,-0.44476 0,-0.24462 -0.2788,-0.44476 -0.61956,-0.44476 -0.34076,0 -0.73476,-0.30022 -0.87557,-0.66715 -0.14081,-0.36693 -0.54109,-0.66715 -0.88953,-0.66715 -0.34844,0 -0.74872,-0.30022 -0.88953,-0.66715 -0.14081,-0.36693 -0.54109,-0.66714 -0.88953,-0.66714 -0.34844,0 -0.74872,-0.30022 -0.88953,-0.66715 -0.14081,-0.36693 -0.51436,-0.66715 -0.83013,-0.66715 -0.31576,0 -0.8241,-0.40029 -1.12964,-0.88953 -0.30554,-0.48924 -0.73857,-0.88953 -0.9623,-0.88953 -0.22373,0 -0.98424,-0.5504 -1.69002,-1.2231 -0.70579,-0.67271 -2.45292,-2.22383 -3.88253,-3.44693 -4.19355,-3.58781 -16.25138,-15.8584 -16.25138,-16.53814 0,-0.21298 -0.5504,-0.93 -1.2231,-1.59339 -2.34858,-2.31606 -3.22455,-3.31343 -3.22455,-3.67145 0,-0.19836 -0.29092,-0.67765 -0.6465,-1.06511 -2.11785,-2.30769 -2.46685,-2.73836 -2.46685,-3.04402 0,-0.18596 -0.46063,-0.83643 -1.02363,-1.44548 -0.56299,-0.60905 -1.15714,-1.45762 -1.32033,-1.88571 -0.1632,-0.42808 -0.51495,-0.77834 -0.78169,-0.77834 -0.26673,0 -0.3604,-0.20155 -0.20815,-0.4479 0.15225,-0.24635 -0.0361,-0.56798 -0.41852,-0.71473 -0.38243,-0.14676 -0.69533,-0.54563 -0.69533,-0.88639 0,-0.34076 -0.21196,-0.61957 -0.47102,-0.61957 -0.25906,0 -0.34644,-0.20155 -0.19419,-0.4479 0.15225,-0.24635 -0.0361,-0.56798 -0.41852,-0.71473 -0.38243,-0.14676 -0.69533,-0.54563 -0.69533,-0.88639 0,-0.34076 -0.21196,-0.61957 -0.47102,-0.61957 -0.25906,0 -0.34731,-0.20014 -0.19613,-0.44476 0.15118,-0.24462 0.0629,-0.44477 -0.19613,-0.44477 -0.25906,0 -0.47102,-0.30021 -0.47102,-0.66714 0,-0.36693 -0.20014,-0.66715 -0.44476,-0.66715 -0.24462,0 -0.44477,-0.28592 -0.44477,-0.63538 0,-0.34946 -0.27381,-0.90919 -0.60847,-1.24385 -0.33466,-0.33465 -0.74843,-1.04945 -0.9195,-1.58844 -0.17106,-0.53899 -0.5095,-0.97998 -0.75207,-0.97998 -0.24258,0 -0.31735,-0.20014 -0.16616,-0.44476 0.15118,-0.24463 0.0784,-0.44477 -0.16165,-0.44477 -0.24008,0 -0.6677,-0.7005 -0.95027,-1.55668 -0.28256,-0.85617 -0.71018,-1.55667 -0.95027,-1.55667 -0.24008,0 -0.31282,-0.20015 -0.16164,-0.44477 0.15119,-0.24462 0.0511,-0.44476 -0.22238,-0.44476 -0.2735,0 -0.37357,-0.20015 -0.22238,-0.44477 0.15118,-0.24462 0.0511,-0.44476 -0.22239,-0.44476 -0.27349,0 -0.37356,-0.20015 -0.22238,-0.44477 0.15119,-0.24462 0.0511,-0.44476 -0.22238,-0.44476 -0.2735,0 -0.37357,-0.20015 -0.22238,-0.44477 0.15118,-0.24462 0.0511,-0.44476 -0.22239,-0.44476 -0.27349,0 -0.37356,-0.20015 -0.22238,-0.44477 0.15119,-0.24462 0.0511,-0.44476 -0.22238,-0.44476 -0.2735,0 -0.37357,-0.20015 -0.22238,-0.44477 0.15118,-0.24462 0.0511,-0.44476 -0.22239,-0.44476 -0.27349,0 -0.37356,-0.20015 -0.22238,-0.44477 0.15119,-0.24462 0.0511,-0.44476 -0.22238,-0.44476 -0.2735,0 -0.37357,-0.20015 -0.22238,-0.44477 0.15118,-0.24462 0.0296,-0.44476 -0.27027,-0.44476 -0.29982,0 -0.42028,-0.12486 -0.26768,-0.27746 0.1526,-0.1526 -0.15472,-1.10328 -0.68293,-2.11263 -0.52821,-1.00935 -0.91992,-1.98529 -0.87047,-2.16875 0.0494,-0.18347 -0.1436,-0.33358 -0.42899,-0.33358 -0.28539,0 -0.39251,-0.12639 -0.23803,-0.28086 0.15448,-0.15447 0.0452,-0.70487 -0.24275,-1.2231 -0.28798,-0.51824 -0.48108,-1.09235 -0.42911,-1.27582 0.052,-0.18346 -0.13901,-0.33357 -0.4244,-0.33357 -0.28539,0 -0.3872,-0.1317 -0.22624,-0.29265 0.16095,-0.16096 0.0697,-0.56125 -0.20272,-0.88953 -0.27245,-0.32829 -0.34776,-0.59688 -0.16737,-0.59688 0.1804,0 1.4e-4,-0.50036 -0.40056,-1.11191 -0.4007,-0.61156 -0.61682,-1.11192 -0.48027,-1.11192 0.13656,0 -0.002,-0.45032 -0.30756,-1.00072 -0.30571,-0.55039 -0.58795,-1.15083 -0.6272,-1.33429 -0.0392,-0.18347 -0.12139,-0.43365 -0.18255,-0.55596 -0.0611,-0.12231 -0.16122,-0.42253 -0.22238,-0.66715 -0.0611,-0.24462 -0.16123,-0.54483 -0.22238,-0.66714 -0.0612,-0.12231 -0.16123,-0.42253 -0.22238,-0.66715 -0.0612,-0.24462 -0.16123,-0.54484 -0.22239,-0.66715 -0.0611,-0.12231 -0.16122,-0.42253 -0.22238,-0.66715 -0.0611,-0.24462 -0.16123,-0.54483 -0.22238,-0.66714 -0.0612,-0.12231 -0.16123,-0.42253 -0.22238,-0.66715 -0.0612,-0.24462 -0.16123,-0.54484 -0.22239,-0.66715 -0.0611,-0.12231 -0.161223,-0.42253 -0.222378,-0.66715 -0.06115,-0.24462 -0.161227,-0.54483 -0.222382,-0.66714 -0.06116,-0.12231 -0.152982,-0.37249 -0.204054,-0.55596 -0.05108,-0.18347 -0.323962,-0.89091 -0.60641,-1.57211 -0.282453,-0.68119 -0.49216,-1.38169 -0.466021,-1.55667 0.02615,-0.17498 0.0085,-0.41822 -0.03918,-0.54053 -0.04768,-0.12231 -0.171456,-0.57264 -0.275051,-1.00072 -0.305042,-1.26053 -0.482299,-1.84968 -0.769457,-2.5574 -0.378535,-0.93293 -1.657123,-6.08064 -1.922398,-7.73973 -0.225648,-1.41128 -0.478354,-2.75138 -0.888877,-4.71369 -0.473683,-2.26424 -1.003385,-6.37032 -1.319653,-10.22959 -0.110257,-1.34542 -0.303663,-12.25328 -0.429789,-24.23969 -0.126127,-11.98642 -0.318007,-22.05028 -0.426401,-22.36413 -0.157807,-0.45693 -5.699974,-0.55932 -27.812184,-0.51383 -30.995777,0.0638 -27.900314,0.4052 -29.758612,-3.28244 -0.896287,-1.77861 -0.823341,-2.73801 0.239179,-3.14574 0.348017,-0.13355 0.632758,-0.5279 0.632758,-0.87634 0,-0.34843 0.300217,-0.74872 0.667148,-0.88953 0.366931,-0.1408 0.667147,-0.45333 0.667147,-0.69451 0,-0.24118 0.479542,-0.96878 1.065648,-1.6169 1.103859,-1.22065 2.373966,-2.70737 4.917273,-5.7559 0.816322,-0.97848 4.261702,-4.98738 7.6564,-8.90867 3.394697,-3.92129 12.359055,-14.42886 19.920796,-23.35016 7.561739,-8.9213 13.861906,-16.32062 14.00037,-16.44293 0.13846,-0.12231 1.05017,-1.21515 2.026029,-2.42854 0.975854,-1.21339 2.276791,-2.76357 2.890972,-3.44484 0.614176,-0.68128 1.717122,-1.96439 2.450984,-2.85136 0.733862,-0.88698 1.834655,-2.18648 2.446207,-2.88779 0.611552,-0.70132 1.612273,-1.88029 2.223825,-2.61995 0.611552,-0.73966 1.612273,-1.91928 2.223825,-2.62139 2.258296,-2.59271 4.086176,-4.74957 5.032376,-5.9381 1.2033,-1.51148 3.56805,-4.19403 5.00515,-5.67779 0.59487,-0.61419 1.08159,-1.28443 1.08159,-1.48942 0,-0.20499 0.5504,-0.92358 1.22311,-1.59685 0.6727,-0.67328 1.89027,-2.00448 2.70571,-2.95823 3.06496,-3.58483 4.65865,-5.09307 6.10866,-5.78114 1.38505,-0.65725 1.64821,-0.65003 3.60939,0.099 1.16349,0.44434 2.45385,1.08198 2.86748,1.41699 1.29677,1.05026 4.97277,4.80755 7.0582,7.21428 1.10079,1.2704 2.55183,2.86817 3.22454,3.55061 0.67271,0.68244 1.22311,1.40314 1.22311,1.60156 0,0.19842 0.49272,0.86866 1.09493,1.48942 3.30902,3.41094 3.79748,3.96232 3.79748,4.28666 0,0.19519 0.58804,0.96551 1.30676,1.71181 1.39801,1.45167 3.1235,3.4094 4.91995,5.58217 0.61155,0.73966 1.61227,1.91749 2.22382,2.6174 0.61156,0.69991 1.61228,1.93091 2.22383,2.73555 0.61155,0.80464 1.71845,2.09372 2.45977,2.86463 0.74133,0.77091 2.14234,2.3896 3.11336,3.59708 0.97102,1.20749 1.8878,2.29551 2.03728,2.41782 0.14948,0.12231 3.10968,3.62483 6.57821,7.78339 3.46854,4.15855 6.66893,7.96129 7.11198,8.45053 0.44305,0.48924 3.14626,3.69155 6.00714,7.11624 2.86087,3.42469 5.56922,6.63098 6.01856,7.1251 0.44934,0.49411 2.05846,2.39548 3.57581,4.22526 1.51736,1.82979 3.29194,3.95745 3.94351,4.72814 0.65156,0.77069 1.7851,2.1613 2.51896,3.09025 0.73386,0.92895 1.78462,2.12264 2.33502,2.65263 0.55039,0.53 1.00072,1.11788 1.00072,1.3064 0,0.18851 0.45032,0.80482 1.00072,1.36955 1.74159,1.78696 2.35865,2.57876 3.698,4.74517 0.71808,1.16151 1.46753,2.1122 1.66543,2.11263 0.1979,4.4e-4 0.23613,0.20094 0.0849,0.44556 -0.15118,0.24462 -0.0511,0.44477 0.22238,0.44477 0.2735,0 0.38212,0.18631 0.24138,0.41403 -0.14074,0.22772 -0.0525,0.53975 0.19613,0.6934 0.51925,0.32091 0.59883,2.88355 0.11164,3.59504 -0.41509,0.60621 -1.78781,1.19187 -3.21774,1.37283 -0.61155,0.0774 -11.81963,0.2426 -24.90683,0.36711 -13.08721,0.12451 -25.02858,0.34114 -26.53638,0.4814 l -2.74146,0.25502 -0.0455,12.31093 c -0.0661,17.87542 0.65286,35.26354 1.71378,41.44847 3.07923,17.95096 12.41588,38.56758 24.35281,53.77438 3.52479,4.49033 11.03674,11.93727 16.1562,16.01639 11.18285,8.91035 22.81162,14.81952 37.78117,19.19856 8.43307,2.46693 11.62333,2.73577 29.84991,2.51541 16.91693,-0.20452 15.31308,-0.0317 23.88882,-2.57471 0.17754,-0.0527 0.52296,-0.151 0.76758,-0.21856 0.24462,-0.0676 2.54628,-0.87061 5.11479,-1.78456 30.80804,-10.96234 55.17219,-36.4863 66.73937,-69.91635 2.13073,-6.15798 4.615,-15.9778 5.41311,-21.39694 0.64971,-4.41153 0.82563,-48.65783 0.19596,-49.28742 -0.20384,-0.20382 -12.71286,-0.5417 -27.79781,-0.75084 l -27.42717,-0.38027 -1.02072,-1.27196 c -0.56139,-0.69957 -1.02462,-1.37536 -1.02941,-1.50175 -0.005,-0.12639 -0.16536,-0.7839 -0.35684,-1.46113 -0.26236,-0.92789 -0.14568,-1.44232 0.47345,-2.08749 0.45188,-0.47089 0.8216,-1.12136 0.8216,-1.44549 0,-0.32413 0.20015,-0.58933 0.44477,-0.58933 0.24462,0 0.44476,-0.19105 0.44476,-0.42455 0,-0.2335 0.45033,-0.90907 1.00072,-1.50128 0.99083,-1.06609 2.1845,-2.48216 4.33646,-5.14441 0.61155,-0.75657 1.61228,-1.96053 2.22383,-2.67546 0.61155,-0.71495 1.71234,-2.03035 2.4462,-2.92313 0.73387,-0.89278 1.83466,-2.19744 2.44621,-2.89925 0.61155,-0.70181 1.71235,-2.02464 2.44621,-2.93962 1.29631,-1.61624 2.18764,-2.67918 4.31172,-5.14185 0.564,-0.6539 1.72596,-2.03594 2.58214,-3.07119 0.85617,-1.03525 2.05703,-2.43124 2.66859,-3.1022 0.61155,-0.67096 1.71234,-1.98417 2.4462,-2.91825 1.49289,-1.90018 3.08129,-3.77063 4.52192,-5.3249 0.5301,-0.5719 1.2447,-1.44086 1.58803,-1.93102 0.34332,-0.49016 1.51076,-1.92327 2.59431,-3.18471 1.08356,-1.26143 2.50758,-2.91938 3.1645,-3.68434 0.65693,-0.76496 6.66125,-7.89674 13.34295,-15.84839 6.6817,-7.95166 12.54884,-14.90421 13.03808,-15.45011 0.48924,-0.5459 1.38989,-1.6245 2.00144,-2.39689 0.61155,-0.77238 1.66231,-1.92021 2.33502,-2.55072 0.6727,-0.63051 1.2231,-1.32173 1.2231,-1.53605 0,-0.21431 0.5504,-0.94048 1.2231,-1.61371 2.0638,-2.06538 4.3702,-4.65548 4.80897,-5.40047 0.51322,-0.87141 4.98293,-3.96196 5.72998,-3.96196 0.29871,0 0.68234,0.13922 0.8525,0.30938 0.17016,0.17016 0.65021,0.35941 1.06677,0.42055 0.41657,0.0611 0.82774,0.3222 0.91372,0.58014 0.086,0.25794 0.3037,0.46899 0.48382,0.46899 0.44979,0 8.93845,8.45323 8.93845,8.90114 0,0.19792 0.60043,0.86508 1.33429,1.48258 0.73386,0.61751 1.3343,1.31801 1.3343,1.55668 0,0.23867 0.60043,0.93917 1.33429,1.55668 0.73386,0.6175 1.3343,1.29897 1.3343,1.51438 0,0.2154 0.65047,1.02367 1.44548,1.79616 1.3735,1.33457 1.94001,1.97741 5.33633,6.05531 0.79549,0.95513 1.85656,2.15599 2.35795,2.66859 0.50139,0.5126 2.1655,2.43307 3.69802,4.26773 1.53252,1.83466 3.26569,3.88082 3.85148,4.54702 0.58578,0.66621 6.59648,7.67126 13.35711,15.56678 6.76062,7.89551 12.72098,14.85584 13.24523,15.4674 0.52426,0.61155 4.92708,5.71523 9.78404,11.3415 8.14027,9.42964 9.78768,11.35369 12.94782,15.12201 0.61541,0.73386 1.52308,1.78462 2.01702,2.33502 0.49395,0.55039 0.89809,1.20086 0.89809,1.44548 0,0.24462 0.21195,0.44477 0.47101,0.44477 0.25906,0 0.34732,0.20014 0.19613,0.44476 -0.15118,0.24462 -0.11296,0.44462 0.0849,0.44443 0.2956,-2.8e-4 0.39702,3.5227 0.11205,3.89203 -0.0472,0.0612 -0.13347,0.2613 -0.19173,0.44477 -0.0583,0.18346 -0.36938,0.96293 -0.69136,1.73215 l -0.58541,1.39857 -9.81622,0.26211 c -5.39892,0.14416 -17.49585,0.35617 -26.88207,0.47114 -9.38622,0.11496 -17.18322,0.3264 -17.32668,0.46986 -0.14346,0.14345 -0.42903,8.50871 -0.63461,18.58947 -0.56087,27.50237 -0.70123,29.76659 -2.35632,38.00949 -0.13507,0.67271 -0.32443,1.6234 -0.42081,2.11264 -0.0964,0.48924 -0.30486,1.38989 -0.46332,2.00144 -0.15847,0.61155 -0.28206,1.45822 -0.27465,1.88149 0.007,0.42327 -0.1652,0.88001 -0.38357,1.01497 -0.21837,0.13496 -0.29206,0.51894 -0.16376,0.8533 0.1283,0.33435 0.0282,0.73464 -0.22238,0.88953 -0.25062,0.15489 -0.35069,0.55517 -0.22238,0.88953 0.1283,0.33435 0.0162,0.74206 -0.24907,0.90602 -0.26529,0.16395 -0.36719,0.48441 -0.22645,0.71213 0.14074,0.22772 0.0996,0.66422 -0.0914,0.96999 -0.19103,0.30578 -0.40298,0.80614 -0.47102,1.11191 -0.29146,1.30999 -0.5064,2.12008 -0.59003,2.22383 -0.0493,0.0611 -0.11464,0.29465 -0.14522,0.51889 -0.0306,0.22423 -0.2057,0.55781 -0.38916,0.74127 -0.18347,0.18347 -0.33358,0.8673 -0.33358,1.51962 0,0.65232 -0.15011,1.33615 -0.33357,1.51961 -0.18347,0.18347 -0.35859,0.51704 -0.38917,0.74128 -0.0306,0.22423 -0.10563,0.50777 -0.16679,0.63008 -0.0611,0.12231 -0.16123,0.42253 -0.22238,0.66715 -0.0612,0.24462 -0.16123,0.54484 -0.22238,0.66715 -0.0612,0.12231 -0.16123,0.42252 -0.22239,0.66714 -0.0611,0.24462 -0.15152,0.4948 -0.20081,0.55596 -0.0493,0.0611 -0.15451,0.41141 -0.23382,0.77834 -0.0793,0.36693 -0.39479,1.26758 -0.7011,2.00144 -0.3063,0.73386 -0.63174,1.72785 -0.7232,2.20885 -0.0915,0.48101 -0.46577,1.33163 -0.8318,1.89026 -0.36603,0.55863 -0.55378,1.01569 -0.41723,1.01569 0.13656,0 8.9e-4,0.45032 -0.30192,1.00072 -0.30262,0.5504 -0.59465,1.26777 -0.64895,1.59417 -0.20152,1.2113 -8.57922,18.26937 -9.38963,19.1185 -0.30816,0.32288 -0.68237,1.07342 -0.83156,1.66787 -0.1492,0.59445 -0.43623,1.08081 -0.63785,1.08081 -0.20161,0 -0.50462,0.43494 -0.67334,0.96653 -0.16872,0.53159 -0.67565,1.36248 -1.1265,1.84642 -0.45086,0.48393 -0.71478,1.04972 -0.58649,1.25729 0.12829,0.20758 0.0213,0.37741 -0.23776,0.37741 -0.25906,0 -0.47102,0.30022 -0.47102,0.66715 0,0.36693 -0.20014,0.66714 -0.44476,0.66714 -0.24462,0 -0.44477,0.30022 -0.44477,0.66715 0,0.36693 -0.20014,0.66715 -0.44476,0.66715 -0.24462,0 -0.44477,0.30022 -0.44477,0.66715 0,0.36693 -0.20014,0.66714 -0.44476,0.66714 -0.24462,0 -0.44477,0.20888 -0.44477,0.46418 0,0.2553 -0.50036,1.00379 -1.11191,1.66333 -0.61155,0.65952 -1.11191,1.42996 -1.11191,1.71206 0,0.2821 -0.30022,0.62812 -0.66715,0.76892 -0.36693,0.14081 -0.66715,0.5411 -0.66715,0.88953 0,0.34844 -0.30021,0.74873 -0.66714,0.88953 -0.36693,0.14081 -0.66715,0.5411 -0.66715,0.88953 0,0.34844 -0.30022,0.74873 -0.66715,0.88953 -0.36693,0.14081 -0.66715,0.55547 -0.66715,0.92147 0,0.366 -0.40028,0.87969 -0.88953,1.14152 -0.48924,0.26183 -0.88953,0.7316 -0.88953,1.04392 0,0.31232 -0.60043,1.01177 -1.33429,1.55434 -0.73386,0.54257 -1.33429,1.18675 -1.33429,1.43153 0,0.24477 -0.70051,1.06008 -1.55668,1.81181 -0.85617,0.75174 -1.55668,1.51986 -1.55668,1.70695 0,0.39207 -10.74851,11.26559 -11.18859,11.31872 -0.16052,0.0194 -1.02076,0.78578 -1.91166,1.70311 -0.8909,0.91733 -1.77724,1.66787 -1.96965,1.66787 -0.19241,0 -0.87235,0.55039 -1.51097,1.2231 -0.63863,0.67271 -1.69621,1.62339 -2.35017,2.11263 -0.65397,0.48924 -1.56555,1.23979 -2.02574,1.66787 -0.46019,0.42809 -1.04313,0.77834 -1.29542,0.77834 -0.25231,0 -0.57393,0.30022 -0.71474,0.66715 -0.1408,0.36693 -0.53481,0.66715 -0.87557,0.66715 -0.34076,0 -0.61956,0.20014 -0.61956,0.44476 0,0.24462 -0.3065,0.44477 -0.68111,0.44477 -0.37461,0 -0.79631,0.30021 -0.93711,0.66714 -0.14081,0.36693 -0.49708,0.66715 -0.79171,0.66715 -0.29463,0 -0.92369,0.35025 -1.3979,0.77834 -0.47421,0.42808 -1.40922,1.06053 -2.0778,1.40543 -0.66858,0.34491 -1.61089,0.99537 -2.09404,1.44549 -0.48314,0.45012 -1.08695,0.81839 -1.3418,0.81839 -0.25485,0 -0.46336,0.21196 -0.46336,0.47101 0,0.25906 -0.16983,0.36605 -0.37741,0.23777 -0.20757,-0.12829 -0.7867,0.14806 -1.28695,0.61411 -0.50025,0.46605 -1.03092,0.72599 -1.17927,0.57764 -0.14835,-0.14835 -0.26973,-0.0362 -0.26973,0.24917 0,0.28539 -0.28592,0.51889 -0.63537,0.51889 -0.34946,0 -0.92072,0.28534 -1.26948,0.63409 -0.34875,0.34876 -1.40679,0.95695 -2.35119,1.35155 -0.94441,0.3946 -1.82419,0.88433 -1.95508,1.0883 -0.29357,0.45749 -6.68706,3.695 -6.68706,3.38617 0,-0.12241 -1.10079,0.373 -2.44621,1.10089 -1.34541,0.7279 -2.4462,1.2095 -2.4462,1.07022 0,-0.13928 -0.70051,0.1797 -1.55668,0.70884 -0.85617,0.52915 -1.55668,0.84107 -1.55668,0.69317 0,-0.1479 -0.50036,0.0589 -1.11191,0.45965 -0.61155,0.4007 -1.11191,0.60084 -1.11191,0.44476 0,-0.15608 -0.50036,0.0441 -1.11192,0.44477 -0.61155,0.4007 -1.11191,0.58095 -1.11191,0.40056 0,-0.1804 -0.25018,-0.12943 -0.55595,0.11326 -0.30578,0.24269 -1.35654,0.68269 -2.33502,0.97777 -0.97848,0.29508 -2.07928,0.65413 -2.44621,0.79789 -0.36693,0.14376 -0.76722,0.29595 -0.88953,0.33821 -0.12231,0.0423 -0.5226,0.20731 -0.88953,0.36681 -0.36693,0.15949 -1.06743,0.36232 -1.55667,0.45072 -0.48925,0.0884 -1.22416,0.3063 -1.63314,0.4842 -0.40899,0.1779 -1.00942,0.37788 -1.3343,0.4444 -0.32487,0.0665 -0.8909,0.24547 -1.25783,0.39765 -0.36693,0.15219 -1.26758,0.39308 -2.00144,0.53532 -2.06028,0.39932 -2.1865,0.43594 -2.77978,0.80658 -0.30578,0.19102 -0.74228,0.23217 -0.96999,0.0914 -0.22772,-0.14074 -0.54818,-0.0388 -0.71214,0.22645 -0.16396,0.26529 -0.57166,0.37737 -0.90602,0.24907 -0.33435,-0.12831 -0.71834,-0.0546 -0.8533,0.16375 -0.13496,0.21838 -0.59169,0.39536 -1.01496,0.3933 -0.81194,-0.004 -1.5338,0.14835 -2.99341,0.63155 -0.48924,0.16196 -1.59003,0.38255 -2.44621,0.4902 -0.85617,0.10764 -1.85689,0.31095 -2.22382,0.45179 -0.36693,0.14084 -1.66787,0.36976 -2.89097,0.5087 -1.22311,0.13894 -2.92433,0.33811 -3.7805,0.44259 -9.33939,1.13972 -24.73088,1.62466 -33.35738,1.05098 z"
     id="path5491" />
  <path
     style="fill:#edf2f4;fill-opacity:1;stroke:#edf2f4;stroke-width:0.19792;stroke-dasharray:none;stroke-opacity:1"
     d="m 182.02006,288.54502 c 1.65119,-0.0856 4.35313,-0.0856 6.00432,0 1.65119,0.0856 0.30022,0.15559 -3.00216,0.15559 -3.30238,0 -4.65335,-0.07 -3.00216,-0.15559 z"
     id="path5493" />
</svg>
